<?xml version="1.0" encoding="UTF-8"?>
<svg version="1.1" xmlns="http://www.w3.org/2000/svg" width="318" height="318">
<path d="M0 0 C29.578383 26.21230871 48.95282343 62.61890626 51.87890625 102.30859375 C53.96848705 149.77779368 39.13211184 188.41908988 7.7734375 223.67578125 C-16.55492529 249.36879108 -54.63235365 266.92197755 -90.07275391 268.43457031 C-105.0223897 268.7854903 -119.48783231 268.52658065 -134.12109375 265.30859375 C-135.38308594 265.04175781 -136.64507812 264.77492188 -137.9453125 264.5 C-165.70358483 257.86279355 -191.10394198 242.43531598 -211.12109375 222.30859375 C-211.99121094 221.43847656 -212.86132812 220.56835938 -213.7578125 219.671875 C-243.78459911 188.13667839 -255.19832561 147.19892474 -254.25292969 104.62109375 C-253.44653998 84.35980575 -247.42206358 64.23148031 -238.12109375 46.30859375 C-237.6003125 45.23738281 -237.07953125 44.16617188 -236.54296875 43.0625 C-219.19464213 8.66059989 -186.2799384 -18.01699295 -150.0859375 -30.44921875 C-143.20524974 -32.67255276 -136.21439956 -34.31071412 -129.12109375 -35.69140625 C-127.96867187 -35.91828125 -126.81625 -36.14515625 -125.62890625 -36.37890625 C-80.42368115 -43.75935116 -34.33908916 -29.843712 0 0 Z M-182.5546875 47.11328125 C-198.2155552 67.14399245 -206.55488193 89.58807595 -206.43359375 115.05859375 C-206.4279541 116.29706055 -206.42231445 117.53552734 -206.41650391 118.81152344 C-206.04049134 147.14276729 -193.99237304 172.83159792 -173.88623047 192.68994141 C-150.8517131 214.39271525 -122.09148564 221.15455234 -91.24755859 220.44042969 C-69.20285142 219.51085434 -48.61206431 209.55207258 -32.12109375 195.30859375 C-31.37472656 194.70660156 -30.62835938 194.10460937 -29.859375 193.484375 C-11.06457231 177.83843978 0.80957137 153.3428801 3.87890625 129.30859375 C4.94272069 113.75607628 4.72549682 98.21603786 -0.12109375 83.30859375 C-0.33008301 82.66180664 -0.53907227 82.01501953 -0.75439453 81.34863281 C-9.50480735 55.32680593 -28.02607703 34.23693409 -52.12109375 21.30859375 C-96.88895201 -0.61748228 -149.61262999 9.14795655 -182.5546875 47.11328125 Z " fill="#EFB6CE" transform="translate(260.12109375,43.69140625)"/>
<path d="M0 0 C0.99 0.33 1.98 0.66 3 1 C3.6875 3.0625 3.6875 3.0625 4 5 C5.485 4.01 5.485 4.01 7 3 C9.6875 2.875 9.6875 2.875 12 3 C12.23460937 3.78503906 12.46921875 4.57007812 12.7109375 5.37890625 C13.74942796 8.12439568 13.74942796 8.12439568 16.1015625 9.15234375 C16.93429688 9.41144531 17.76703125 9.67054687 18.625 9.9375 C28.41448924 13.48197024 36.70731791 20.67304884 41.54296875 29.96484375 C44.48573842 36.80829344 46.68066668 43.44427734 47.34765625 50.87109375 C47.41509033 51.5784668 47.48252441 52.28583984 47.55200195 53.01464844 C47.68131951 54.43379301 47.78642153 55.85540998 47.86401367 57.27832031 C48.23632346 61.38019001 48.82164878 62.83376503 51.875 65.6796875 C53.421875 66.82824219 53.421875 66.82824219 55 68 C60.26906301 75.10422812 63.52714432 82.03854655 63 91 C62 92 62 92 59.75 92.3125 C54.97324734 91.7696872 52.24942825 88.27760248 49 85 C48.97421875 85.68964844 48.9484375 86.37929687 48.921875 87.08984375 C48.45033966 94.90232697 47.03555096 101.42876358 41.875 107.5 C39.92741423 110.09678103 39.61606997 111.32819576 39.0625 114.4375 C38.15199142 119.27205881 36.51454611 121.56913355 33 125 C28.51920761 127.72784641 24.10266344 127.64165229 19 127 C15.08958733 125.62747105 11.93348618 123.93348618 9 121 C6.47017403 120.64195789 6.47017403 120.64195789 3.625 120.6875 C2.19027344 120.66236328 2.19027344 120.66236328 0.7265625 120.63671875 C-2.40707268 121.05423748 -3.62363192 121.98767129 -6 124 C-12.15161126 126.43501279 -18.44157053 126.72871439 -25 126 C-28.9821008 124.18360314 -30.50264134 122.76261662 -32.875 119.125 C-34 116 -34 116 -33.8515625 113.1640625 C-34.03598158 109.23302421 -35.26942666 107.4542363 -37.5 104.25 C-41 99.16666667 -41 99.16666667 -41 97 C-43.97 97.99 -43.97 97.99 -47 99 C-49 97 -49 97 -49.125 93.875 C-49.08375 92.92625 -49.0425 91.9775 -49 91 C-49.7425 91.0825 -50.485 91.165 -51.25 91.25 C-54 91 -54 91 -56.25 89.4375 C-58.58383011 86.18680806 -59 83.99103508 -59 80 C-58.360625 79.236875 -57.72125 78.47375 -57.0625 77.6875 C-54.67685676 74.57893457 -54.8146579 73.82550635 -55 70.0625 C-55.18365641 65.08908433 -54.29454548 62.88587416 -51 59 C-50.49082031 58.50242188 -49.98164062 58.00484375 -49.45703125 57.4921875 C-44.31787192 52.24718736 -41.81928387 46.52267317 -38.98364258 39.86303711 C-33.11734215 26.12872592 -26.77144968 15.67706651 -13 9 C-12.13375 8.566875 -11.2675 8.13375 -10.375 7.6875 C-7.20565306 6.77005747 -4.27869949 6.87142355 -1 7 C-1.020625 6.030625 -1.04125 5.06125 -1.0625 4.0625 C-1 1 -1 1 0 0 Z M-30 79 C-30.69159401 80.84725052 -30.69159401 80.84725052 -31 83 C-30.01 84.485 -30.01 84.485 -29 86 C-29 83.69 -29 81.38 -29 79 C-29.33 79 -29.66 79 -30 79 Z " fill="#F9EA62" transform="translate(157,95)"/>
<path d="M0 0 C0.99 0.33 1.98 0.66 3 1 C3.6875 3.0625 3.6875 3.0625 4 5 C5.485 4.01 5.485 4.01 7 3 C9.6875 2.875 9.6875 2.875 12 3 C12.23460937 3.78503906 12.46921875 4.57007812 12.7109375 5.37890625 C13.74942796 8.12439568 13.74942796 8.12439568 16.1015625 9.15234375 C16.93429688 9.41144531 17.76703125 9.67054687 18.625 9.9375 C28.41448924 13.48197024 36.70731791 20.67304884 41.54296875 29.96484375 C44.48573842 36.80829344 46.68066668 43.44427734 47.34765625 50.87109375 C47.41509033 51.5784668 47.48252441 52.28583984 47.55200195 53.01464844 C47.68131951 54.43379301 47.78642153 55.85540998 47.86401367 57.27832031 C48.23632346 61.38019001 48.82164878 62.83376503 51.875 65.6796875 C53.421875 66.82824219 53.421875 66.82824219 55 68 C60.26906301 75.10422812 63.52714432 82.03854655 63 91 C62 92 62 92 59.75 92.3125 C54.97324734 91.7696872 52.24942825 88.27760248 49 85 C48.97421875 85.68964844 48.9484375 86.37929687 48.921875 87.08984375 C48.45033966 94.90232697 47.03555096 101.42876358 41.875 107.5 C39.92741423 110.09678103 39.61606997 111.32819576 39.0625 114.4375 C38.15199142 119.27205881 36.51454611 121.56913355 33 125 C28.51920761 127.72784641 24.10266344 127.64165229 19 127 C15.08958733 125.62747105 11.93348618 123.93348618 9 121 C6.47017403 120.64195789 6.47017403 120.64195789 3.625 120.6875 C2.19027344 120.66236328 2.19027344 120.66236328 0.7265625 120.63671875 C-2.40707268 121.05423748 -3.62363192 121.98767129 -6 124 C-12.15161126 126.43501279 -18.44157053 126.72871439 -25 126 C-28.9821008 124.18360314 -30.50264134 122.76261662 -32.875 119.125 C-34 116 -34 116 -33.8515625 113.1640625 C-34.03598158 109.23302421 -35.26942666 107.4542363 -37.5 104.25 C-41 99.16666667 -41 99.16666667 -41 97 C-43.97 97.99 -43.97 97.99 -47 99 C-49 97 -49 97 -49.125 93.875 C-49.08375 92.92625 -49.0425 91.9775 -49 91 C-49.7425 91.0825 -50.485 91.165 -51.25 91.25 C-54 91 -54 91 -56.25 89.4375 C-58.58383011 86.18680806 -59 83.99103508 -59 80 C-58.360625 79.236875 -57.72125 78.47375 -57.0625 77.6875 C-54.67685676 74.57893457 -54.8146579 73.82550635 -55 70.0625 C-55.18365641 65.08908433 -54.29454548 62.88587416 -51 59 C-50.49082031 58.50242188 -49.98164062 58.00484375 -49.45703125 57.4921875 C-44.31787192 52.24718736 -41.81928387 46.52267317 -38.98364258 39.86303711 C-33.11734215 26.12872592 -26.77144968 15.67706651 -13 9 C-12.13375 8.566875 -11.2675 8.13375 -10.375 7.6875 C-7.20565306 6.77005747 -4.27869949 6.87142355 -1 7 C-1.020625 6.030625 -1.04125 5.06125 -1.0625 4.0625 C-1 1 -1 1 0 0 Z M5.9375 6.0625 C4.9784375 6.5265625 4.9784375 6.5265625 4 7 C3.34 6.67 2.68 6.34 2 6 C2 6.99 2 7.98 2 9 C1.41734375 8.93039063 0.8346875 8.86078125 0.234375 8.7890625 C-8.6071926 8.20518539 -15.25425707 11.45300874 -22.2578125 16.6875 C-31.15019769 24.77782692 -35.77754815 36.24745156 -40.19970703 47.16015625 C-42.27448732 52.00091708 -44.90718073 55.61745922 -48.4375 59.5 C-52.14029161 63.6683737 -52.14029161 63.6683737 -53.9375 68.875 C-53.23993187 73.93765357 -50.98859392 78.81930437 -49.1796875 83.56640625 C-47.72354856 87.80463845 -47.23053812 91.54292962 -47 96 C-46.01 96 -45.02 96 -44 96 C-41.93216783 91.86433566 -40.86122736 88.69398793 -40.625 84.0625 C-40.24277783 78.8547229 -38.5161736 74.8921806 -35 71 C-33.515 70.505 -33.515 70.505 -32 70 C-33.32 71.65 -34.64 73.3 -36 75 C-28.55067538 77.90705351 -23.04212536 77.30699188 -15.625 74.5625 C-10.04000366 72.56602828 -4.93415143 71.31232376 1 71 C3.50304378 74.75456567 3.45280074 76.54745934 3 81 C0.34353934 86.6449789 -3.3782011 88.85888519 -9 91 C-11.83338627 91.84159988 -14.48394359 92.21524251 -17.4375 92.3125 C-18.54931641 92.36857422 -18.54931641 92.36857422 -19.68359375 92.42578125 C-22 92 -22 92 -24.359375 89.90234375 C-26.91131491 87.63125628 -26.91131491 87.63125628 -30.33203125 88.265625 C-31.48058594 88.59046875 -32.62914063 88.9153125 -33.8125 89.25 C-34.97394531 89.56453125 -36.13539062 89.8790625 -37.33203125 90.203125 C-38.65267578 90.59757812 -38.65267578 90.59757812 -40 91 C-40.76186843 92.7564653 -40.76186843 92.7564653 -41 95 C-37.08870638 103.91069148 -30.85566567 111.77134304 -22 116 C-17.01024865 117.65810306 -12.45611918 118.30782448 -7.23046875 118.30078125 C-6.50942459 118.30506638 -5.78838043 118.3093515 -5.04548645 118.31376648 C-3.52862592 118.31947501 -2.01173804 118.32003589 -0.49487305 118.31567383 C1.79622386 118.31252239 4.08601609 118.33598536 6.37695312 118.36132812 C19.206157 118.41809644 29.99702094 116.7235733 39.56640625 107.48828125 C44.82573304 101.50677825 46.45975646 96.34591396 46.1875 88.625 C46.17396484 87.88894531 46.16042969 87.15289062 46.14648438 86.39453125 C46.11144869 84.59603257 46.05765288 82.79791578 46 81 C45.01 81 44.02 81 43 81 C43 80.34 43 79.68 43 79 C48.86297776 80.91444172 51.61548625 83.44294718 55.32421875 88.35546875 C57.08450028 90.46694709 57.08450028 90.46694709 61 90 C61.33833608 84.53828895 60.55951092 81.22627159 57.9375 76.4375 C57.36902344 75.36371094 56.80054688 74.28992188 56.21484375 73.18359375 C54.25399601 70.36509126 52.9844691 69.14057226 50.328125 67.16796875 C47.46507351 64.83823451 46.49862031 63.35191112 46.01953125 59.6796875 C45.92327626 58.0795313 45.85528382 56.47747759 45.8125 54.875 C45.69858729 53.17639879 45.57488831 51.47842551 45.44140625 49.78125 C45.37711426 48.96140625 45.31282227 48.1415625 45.24658203 47.296875 C43.94651578 35.18695094 37.31823376 25.18019309 28.19140625 17.47265625 C22.52917746 12.9583257 16.54161186 9.29297389 9 10 C9.66 8.35 10.32 6.7 11 5 C8.0578058 4.77102171 8.0578058 4.77102171 5.9375 6.0625 Z M-30 79 C-30.69159401 80.84725052 -30.69159401 80.84725052 -31 83 C-30.01 84.485 -30.01 84.485 -29 86 C-29 83.69 -29 81.38 -29 79 C-29.33 79 -29.66 79 -30 79 Z " fill="#413C1B" transform="translate(157,95)"/>
<path d="M0 0 C0.99 0.33 1.98 0.66 3 1 C3.6875 3.0625 3.6875 3.0625 4 5 C4.99 4.34 5.98 3.68 7 3 C9.6875 2.875 9.6875 2.875 12 3 C12.23460937 3.78503906 12.46921875 4.57007812 12.7109375 5.37890625 C13.74942796 8.12439568 13.74942796 8.12439568 16.1015625 9.15234375 C16.93429688 9.41144531 17.76703125 9.67054687 18.625 9.9375 C28.41448924 13.48197024 36.70731791 20.67304884 41.54296875 29.96484375 C44.48573842 36.80829344 46.68066668 43.44427734 47.34765625 50.87109375 C47.41509033 51.5784668 47.48252441 52.28583984 47.55200195 53.01464844 C47.68131951 54.43379301 47.78642153 55.85540998 47.86401367 57.27832031 C48.23632346 61.38019001 48.82164878 62.83376503 51.875 65.6796875 C53.421875 66.82824219 53.421875 66.82824219 55 68 C60.26906301 75.10422812 63.52714432 82.03854655 63 91 C62 92 62 92 59.75 92.3125 C54.97324734 91.7696872 52.24942825 88.27760248 49 85 C48.97421875 85.68964844 48.9484375 86.37929687 48.921875 87.08984375 C48.45033966 94.90232697 47.03555096 101.42876358 41.875 107.5 C39.92741423 110.09678103 39.61606997 111.32819576 39.0625 114.4375 C38.13003302 119.30254514 36.63572765 121.61216287 33 125 C28.49959468 127.45476654 25.05880979 127.04595245 20.265625 125.84765625 C17.91978352 124.96998797 16.35690469 123.88727945 14.375 122.375 C8.79554219 118.55747623 1.45917008 119.10702718 -5 120 C-7.2518398 121.38066991 -7.2518398 121.38066991 -9 123 C-12.29092594 124.09697531 -14.91112159 124.2371983 -18.375 124.3125 C-20.05722656 124.36857422 -20.05722656 124.36857422 -21.7734375 124.42578125 C-25.65509769 123.91355248 -27.22146425 122.69342744 -30 120 C-32.05556739 116.965591 -32.20129748 114.62335457 -32 111 C-31.01 110.505 -31.01 110.505 -30 110 C-28.0101251 111.08413874 -26.21933664 112.37765834 -24.36328125 113.67578125 C-18.9456404 116.71145108 -13.33472237 117.30900868 -7.23046875 117.30078125 C-6.50942459 117.30506638 -5.78838043 117.3093515 -5.04548645 117.31376648 C-3.52862592 117.31947501 -2.01173804 117.32003589 -0.49487305 117.31567383 C1.79622386 117.31252239 4.08601609 117.33598536 6.37695312 117.36132812 C18.62256078 117.41559767 28.25990244 115.86393123 38 108 C43.53967778 102.16876023 45.43961914 96.45803525 45.6875 88.625 C45.72166016 87.88894531 45.75582031 87.15289062 45.79101562 86.39453125 C45.87272789 84.59686147 45.93805781 82.79845954 46 81 C45.01 81 44.02 81 43 81 C43 80.34 43 79.68 43 79 C45.5 78.9375 45.5 78.9375 49 80 C51.20858445 82.20435345 53.13953871 84.51845074 55.0703125 86.96875 C57.10134663 89.10668067 58.12467085 89.64218126 61 90 C59.55680573 81.19651497 56.73869876 72.71334403 49.3671875 67.23828125 C46.50104345 64.8799082 45.49830617 63.37292289 45.01953125 59.6796875 C44.92327626 58.0795313 44.85528382 56.47747759 44.8125 54.875 C44.69858729 53.17639879 44.57488831 51.47842551 44.44140625 49.78125 C44.37711426 48.96140625 44.31282227 48.1415625 44.24658203 47.296875 C43.38038888 39.22841446 40.10195832 32.4140777 35.3671875 25.9375 C34 24 34 24 33.0703125 21.875 C31.70573612 19.48450123 30.50050994 19.08130159 28 18 C26.43436478 17.00491578 24.87207431 16.00455672 23.3125 15 C18.55776869 12.10335834 14.47448675 10.88298173 9 10 C9.66 8.35 10.32 6.7 11 5 C9.8553125 5.7734375 9.8553125 5.7734375 8.6875 6.5625 C7.800625 7.036875 6.91375 7.51125 6 8 C5.01 7.67 4.02 7.34 3 7 C2.67 7.66 2.34 8.32 2 9 C0.03105833 9.32073258 -1.95212052 9.55540038 -3.9375 9.75 C-13.84120607 11.16945897 -20.68721867 15.6121624 -27.05859375 23.2578125 C-32.27867942 30.63105222 -36.21698329 38.74396059 -39.375 47.1875 C-41.23154211 51.95689265 -43.84217935 55.37483847 -47.25 59.125 C-51.43159493 63.82774326 -53.11300159 66.93450447 -53.1328125 73.234375 C-53.08898437 73.81703125 -53.04515625 74.3996875 -53 75 C-53.66 75 -54.32 75 -55 75 C-55.47078254 68.38288979 -55.465705 64.2672418 -51 59 C-50.49082031 58.50242188 -49.98164062 58.00484375 -49.45703125 57.4921875 C-44.31787192 52.24718736 -41.81928387 46.52267317 -38.98364258 39.86303711 C-33.11734215 26.12872592 -26.77144968 15.67706651 -13 9 C-12.13375 8.566875 -11.2675 8.13375 -10.375 7.6875 C-7.20565306 6.77005747 -4.27869949 6.87142355 -1 7 C-1.020625 6.030625 -1.04125 5.06125 -1.0625 4.0625 C-1 1 -1 1 0 0 Z " fill="#160E04" transform="translate(157,95)"/>
<path d="M0 0 C0.99 0.33 1.98 0.66 3 1 C3.6875 3.0625 3.6875 3.0625 4 5 C4.99 4.34 5.98 3.68 7 3 C9.6875 2.875 9.6875 2.875 12 3 C12.23460937 3.78503906 12.46921875 4.57007812 12.7109375 5.37890625 C13.74942796 8.12439568 13.74942796 8.12439568 16.1015625 9.15234375 C16.93429688 9.41144531 17.76703125 9.67054687 18.625 9.9375 C28.41448924 13.48197024 36.70731791 20.67304884 41.54296875 29.96484375 C44.48573842 36.80829344 46.68066668 43.44427734 47.34765625 50.87109375 C47.41509033 51.5784668 47.48252441 52.28583984 47.55200195 53.01464844 C47.68131951 54.43379301 47.78642153 55.85540998 47.86401367 57.27832031 C48.23632346 61.38019001 48.82164878 62.83376503 51.875 65.6796875 C53.421875 66.82824219 53.421875 66.82824219 55 68 C60.26906301 75.10422812 63.52714432 82.03854655 63 91 C62 92 62 92 59.75 92.3125 C56.11627522 91.89957673 54.5905181 90.51855926 52 88 C51.67 87.01 51.34 86.02 51 85 C53.46800047 86.15173355 55.04783565 87.04783565 57 89 C59.06874034 89.6425235 59.06874034 89.6425235 61 90 C59.55680573 81.19651497 56.73869876 72.71334403 49.3671875 67.23828125 C46.50104345 64.8799082 45.49830617 63.37292289 45.01953125 59.6796875 C44.92327626 58.0795313 44.85528382 56.47747759 44.8125 54.875 C44.69858729 53.17639879 44.57488831 51.47842551 44.44140625 49.78125 C44.37711426 48.96140625 44.31282227 48.1415625 44.24658203 47.296875 C43.38038888 39.22841446 40.10195832 32.4140777 35.3671875 25.9375 C34 24 34 24 33.0703125 21.875 C31.70573612 19.48450123 30.50050994 19.08130159 28 18 C26.43436478 17.00491578 24.87207431 16.00455672 23.3125 15 C18.55776869 12.10335834 14.47448675 10.88298173 9 10 C9.66 8.35 10.32 6.7 11 5 C9.8553125 5.7734375 9.8553125 5.7734375 8.6875 6.5625 C7.800625 7.036875 6.91375 7.51125 6 8 C5.01 7.67 4.02 7.34 3 7 C2.67 7.66 2.34 8.32 2 9 C0.03105833 9.32073258 -1.95212052 9.55540038 -3.9375 9.75 C-13.84120607 11.16945897 -20.68721867 15.6121624 -27.05859375 23.2578125 C-32.27867942 30.63105222 -36.21698329 38.74396059 -39.375 47.1875 C-41.23154211 51.95689265 -43.84217935 55.37483847 -47.25 59.125 C-51.43159493 63.82774326 -53.11300159 66.93450447 -53.1328125 73.234375 C-53.08898437 73.81703125 -53.04515625 74.3996875 -53 75 C-53.66 75 -54.32 75 -55 75 C-55.47078254 68.38288979 -55.465705 64.2672418 -51 59 C-50.49082031 58.50242188 -49.98164062 58.00484375 -49.45703125 57.4921875 C-44.31787192 52.24718736 -41.81928387 46.52267317 -38.98364258 39.86303711 C-33.11734215 26.12872592 -26.77144968 15.67706651 -13 9 C-12.13375 8.566875 -11.2675 8.13375 -10.375 7.6875 C-7.20565306 6.77005747 -4.27869949 6.87142355 -1 7 C-1.020625 6.030625 -1.04125 5.06125 -1.0625 4.0625 C-1 1 -1 1 0 0 Z " fill="#1F1808" transform="translate(157,95)"/>
<path d="M0 0 C1.54983261 1.54983261 1.28132961 3.03668378 1.375 5.1875 C1.30471475 9.20653867 0.61645763 11.80358217 -2.328125 14.78125 C-7.6907638 18.69046333 -14.25767254 19.61176033 -20.76171875 19.4296875 C-24.31588608 18.74738662 -25.91124974 16.8299197 -28 14 C-29.35439668 11.29120665 -29.06501451 8.99066732 -29 6 C-28.42894531 5.90203125 -27.85789063 5.8040625 -27.26953125 5.703125 C-21.01586956 4.5498265 -15.10265781 2.83759636 -9.078125 0.8046875 C-5.90102324 -0.02587464 -3.2687626 -0.21982906 0 0 Z " fill="#C6DADE" transform="translate(158,167)"/>
<path d="M0 0 C1 1 1 1 1.3125 3.375 C1 6 1 6 -0.75 7.75 C-6.1919539 10.77330772 -12.06518471 10.18362048 -18.125 10.1875 C-19.13949219 10.19974609 -20.15398437 10.21199219 -21.19921875 10.22460938 C-22.16730469 10.22654297 -23.13539063 10.22847656 -24.1328125 10.23046875 C-25.46143311 10.23663208 -25.46143311 10.23663208 -26.81689453 10.24291992 C-29 10 -29 10 -31 8 C-31 5.125 -31 5.125 -30 2 C-21.70441101 -4.82081761 -9.27594194 -5.27042155 0 0 Z " fill="#EDBC7D" transform="translate(179,145)"/>
<path d="M0 0 C3.40312738 1.05875074 6.01353231 2.00902154 9 4 C8.67 5.32 8.34 6.64 8 8 C8.99 7.67 9.98 7.34 11 7 C11 7.66 11 8.32 11 9 C10.01 9.495 10.01 9.495 9 10 C11.32357511 10.18490007 11.32357511 10.18490007 14 8 C14.33 9.98 14.66 11.96 15 14 C16.98 13.67 18.96 13.34 21 13 C21 16.3 21 19.6 21 23 C21.78375 22.01 22.5675 21.02 23.375 20 C24.24125 19.01 25.1075 18.02 26 17 C26.66 17 27.32 17 28 17 C26.5 20 26.5 20 25 23 C25.66 23 26.32 23 27 23 C27 23.66 27 24.32 27 25 C29.64 25.66 32.28 26.32 35 27 C35.495 29.475 35.495 29.475 36 32 C35.4121875 31.2265625 35.4121875 31.2265625 34.8125 30.4375 C33.05072446 28.72513271 33.05072446 28.72513271 30.4375 29.0625 C27.85338976 29.77905218 27.85338976 29.77905218 26.6875 32.0625 C26.460625 32.701875 26.23375 33.34125 26 34 C27.485 33.505 27.485 33.505 29 33 C29 32.34 29 31.68 29 31 C29.99 31.33 30.98 31.66 32 32 C31.67 33.32 31.34 34.64 31 36 C28.75 36.3125 28.75 36.3125 26 36 C23.46161323 33.39110249 22.15259683 31.45779049 21 28 C20.01 28 19.02 28 18 28 C18 25.03 18 22.06 18 19 C17.01 19.99 16.02 20.98 15 22 C14.34 22 13.68 22 13 22 C13.66 20.02 14.32 18.04 15 16 C12.03 16.66 9.06 17.32 6 18 C5.67 17.34 5.34 16.68 5 16 C4.01 16.33 3.02 16.66 2 17 C0.4375 15.9375 0.4375 15.9375 -1 14 C-0.7756359 9.88665824 -0.12787433 6.54645721 2 3 C1.34 2.67 0.68 2.34 0 2 C0 1.34 0 0.68 0 0 Z " fill="#F1BCD3" transform="translate(225,45)"/>
<path d="M0 0 C0.66 0.33 1.32 0.66 2 1 C2.6328125 3.28515625 2.6328125 3.28515625 3.125 6.0625 C3.29257813 6.98160156 3.46015625 7.90070313 3.6328125 8.84765625 C3.75398438 9.55792969 3.87515625 10.26820313 4 11 C-0.625 14 -0.625 14 -4 14 C-5.6875 11.5 -5.6875 11.5 -7 9 C-7.33 9.66 -7.66 10.32 -8 11 C-8.66 11 -9.32 11 -10 11 C-10.33 11.99 -10.66 12.98 -11 14 C-13.875 14.125 -13.875 14.125 -17 14 C-19.32528287 11.67471713 -19.29511025 11.15334102 -19.3125 8 C-19.32925781 7.29875 -19.34601563 6.5975 -19.36328125 5.875 C-19.24339844 5.25625 -19.12351563 4.6375 -19 4 C-16 2 -16 2 -13 2.1875 C-9.99224715 3.00209973 -8.88178097 3.5955021 -7 6 C-6.67 5.34 -6.34 4.68 -6 4 C-3.03 4.495 -3.03 4.495 0 5 C0 3.35 0 1.7 0 0 Z " fill="#28121B" transform="translate(183,279)"/>
<path d="M0 0 C1.48199902 0.44909061 2.96055236 0.90956564 4.4375 1.375 C5.26121094 1.63023438 6.08492187 1.88546875 6.93359375 2.1484375 C9 3 9 3 10 5 C7.525 4.505 7.525 4.505 5 4 C4.67 5.98 4.34 7.96 4 10 C4.99 10 5.98 10 7 10 C7 10.66 7 11.32 7 12 C6.01 12.33 5.02 12.66 4 13 C3.06619039 17.53140653 3.06619039 17.53140653 4 22 C0.7 21.34 -2.6 20.68 -6 20 C-6 20.66 -6 21.32 -6 22 C-6.66 22 -7.32 22 -8 22 C-8 17.38 -8 12.76 -8 8 C-1.5 5 -1.5 5 3 5 C3 4.34 3 3.68 3 3 C2.01 2.67 1.02 2.34 0 2 C0 1.34 0 0.68 0 0 Z " fill="#EAB8CE" transform="translate(41,100)"/>
<path d="M0 0 C0.969375 0.12375 1.93875 0.2475 2.9375 0.375 C5.39081002 4.05496503 5.33257893 6.02913172 4.9375 10.375 C1.9375 12.375 1.9375 12.375 -0.4375 12.1875 C-3.31333387 11.29736094 -5.55373061 10.02361989 -8.0625 8.375 C-8.041875 9.468125 -8.02125 10.56125 -8 11.6875 C-8.0625 15.375 -8.0625 15.375 -9.0625 18.375 C-9.7225 18.375 -10.3825 18.375 -11.0625 18.375 C-11.660625 17.75625 -12.25875 17.1375 -12.875 16.5 C-15.18755706 14.253516 -17.03449019 13.3843366 -20.0625 12.375 C-20.0625 11.715 -20.0625 11.055 -20.0625 10.375 C-17.7525 11.035 -15.4425 11.695 -13.0625 12.375 C-13.0625 9.735 -13.0625 7.095 -13.0625 4.375 C-11.969375 4.271875 -10.87625 4.16875 -9.75 4.0625 C-6.14251834 3.74956435 -6.14251834 3.74956435 -4.5 1.8125 C-3.0625 0.375 -3.0625 0.375 0 0 Z " fill="#3B1F2B" transform="translate(100.0625,40.625)"/>
<path d="M0 0 C-1.12451727 2.9719385 -2.22293791 5.33440687 -4 8 C-1.36 8 1.28 8 4 8 C4.33 10.64 4.66 13.28 5 16 C5.61875 16.04125 6.2375 16.0825 6.875 16.125 C7.57625 16.41375 8.2775 16.7025 9 17 C10.25 20.0625 10.25 20.0625 11 23 C10.34 23 9.68 23 9 23 C8.67 21.68 8.34 20.36 8 19 C4.75150023 20.72226496 4.75150023 20.72226496 4 24 C3.67 23.01 3.34 22.02 3 21 C2.34 21.33 1.68 21.66 1 22 C1 23.32 1 24.64 1 26 C-0.9375 25.375 -0.9375 25.375 -3 24 C-3.8125 20.9375 -3.8125 20.9375 -4 18 C-3.67 17.67 -3.34 17.34 -3 17 C-3.66 16.67 -4.32 16.34 -5 16 C-3.25 12.125 -3.25 12.125 -1 11 C-3.31 10.67 -5.62 10.34 -8 10 C-7.34 8.35 -6.68 6.7 -6 5 C-6.66 5 -7.32 5 -8 5 C-8.99 5 -9.98 5 -11 5 C-11 4.34 -11 3.68 -11 3 C-9.73160474 2.49384702 -8.46016898 1.99530901 -7.1875 1.5 C-6.12595703 1.08234375 -6.12595703 1.08234375 -5.04296875 0.65625 C-3 0 -3 0 0 0 Z " fill="#EFBCD0" transform="translate(273,89)"/>
<path d="M0 0 C0 2.97 0 5.94 0 9 C0.78375 8.01 1.5675 7.02 2.375 6 C3.24125 5.01 4.1075 4.02 5 3 C5.66 3 6.32 3 7 3 C6 5 5 7 4 9 C4.66 9 5.32 9 6 9 C6 9.66 6 10.32 6 11 C8.64 11.66 11.28 12.32 14 13 C14.33 14.65 14.66 16.3 15 18 C14.608125 17.484375 14.21625 16.96875 13.8125 16.4375 C12.05072446 14.72513271 12.05072446 14.72513271 9.4375 15.0625 C6.85338976 15.77905218 6.85338976 15.77905218 5.6875 18.0625 C5.460625 18.701875 5.23375 19.34125 5 20 C5.99 19.67 6.98 19.34 8 19 C8 18.34 8 17.68 8 17 C8.99 17.33 9.98 17.66 11 18 C10.67 19.32 10.34 20.64 10 22 C7.75 22.3125 7.75 22.3125 5 22 C2.46161323 19.39110249 1.15259683 17.45779049 0 14 C-0.99 14 -1.98 14 -3 14 C-3 11.03 -3 8.06 -3 5 C-3.99 5.99 -4.98 6.98 -6 8 C-6.66 8 -7.32 8 -8 8 C-6.48291727 4.46014029 -4.24676932 0 0 0 Z " fill="#E4B2C7" transform="translate(246,59)"/>
<path d="M0 0 C3.37177797 1.39521847 5.25017709 2.76282761 7 6 C6.979375 7.11375 6.95875 8.2275 6.9375 9.375 C7.01369268 13.79417524 8.25674578 15.6112742 11 19 C13.80497823 20.40248912 16.18501365 20.16979056 19.3125 20.1875 C20.44300781 20.20167969 21.57351562 20.21585938 22.73828125 20.23046875 C25.93204843 20.00480137 28.1276429 19.36342654 31 18 C30.34 17.34 29.68 16.68 29 16 C32.00155373 15.86384081 34.996821 15.7653602 38 15.6875 C38.83917969 15.64560547 39.67835938 15.60371094 40.54296875 15.56054688 C46.29849523 15.44900566 49.56503609 16.49057355 54.25390625 19.81323242 C56.42946047 21.29189141 58.41971206 21.86901301 61 22.3125 C62.1446875 22.52326172 62.1446875 22.52326172 63.3125 22.73828125 C63.869375 22.82464844 64.42625 22.91101563 65 23 C65 23.33 65 23.66 65 24 C58.5959301 24.45743356 54.42348408 23.48834422 49 20 C48.34 19.34 47.68 18.68 47 18 C44.47017403 17.64195789 44.47017403 17.64195789 41.625 17.6875 C40.66851562 17.67074219 39.71203125 17.65398437 38.7265625 17.63671875 C35.59292732 18.05423748 34.37636808 18.98767129 32 21 C25.84838874 23.43501279 19.55842947 23.72871439 13 23 C9.0178992 21.18360314 7.49735866 19.76261662 5.125 16.125 C4 13 4 13 4.0625 10.0625 C3.97506995 5.77842776 2.29237846 3.58184135 0 0 Z " fill="#191505" transform="translate(119,198)"/>
<path d="M0 0 C3.3 0.66 6.6 1.32 10 2 C10 1.34 10 0.68 10 0 C10.66 0 11.32 0 12 0 C11.67 2.97 11.34 5.94 11 9 C10.01 9 9.02 9 8 9 C7.67 9.66 7.34 10.32 7 11 C6.67 11.66 6.34 12.32 6 13 C6.66 13.66 7.32 14.32 8 15 C6.02 15 4.04 15 2 15 C2 16.32 2 17.64 2 19 C2.66 19.33 3.32 19.66 4 20 C4 20.66 4 21.32 4 22 C2.51800098 21.55090939 1.03944764 21.09043436 -0.4375 20.625 C-1.67306641 20.24214844 -1.67306641 20.24214844 -2.93359375 19.8515625 C-5 19 -5 19 -6 17 C-4.35 17.33 -2.7 17.66 -1 18 C-0.67 16.02 -0.34 14.04 0 12 C-0.99 11.67 -1.98 11.34 -3 11 C-1.625 9.5 -1.625 9.5 0 8 C0.66 8 1.32 8 2 8 C2.33 6.35 2.66 4.7 3 3 C2.01 2.67 1.02 2.34 0 2 C0 1.34 0 0.68 0 0 Z " fill="#F1BDD3" transform="translate(273,198)"/>
<path d="M0 0 C-0.93273579 4.75695253 -1.93010741 8.07697773 -6.02734375 11.1171875 C-10.1999245 12.98452067 -14.56749421 12.73546763 -19 12 C-21.517109 10.92192655 -22.92537386 9.85034223 -25 8 C-25 7.67 -25 7.34 -25 7 C-23.84242188 6.74605469 -22.68484375 6.49210938 -21.4921875 6.23046875 C-19.9530329 5.88322046 -18.41397547 5.53554133 -16.875 5.1875 C-16.11445313 5.02185547 -15.35390625 4.85621094 -14.5703125 4.68554688 C-9.80698083 3.59737197 -4.59550944 0 0 0 Z " fill="#EADE69" transform="translate(194,208)"/>
<path d="M0 0 C2.61915831 1.02571773 5.20004309 2.09082579 7.76171875 3.25390625 C14.24278324 6.15264671 19.88739718 7.82690568 27 8 C22.55789161 11.52305148 19.26034817 12.18999243 13.625 12.3125 C11.94277344 12.36857422 11.94277344 12.36857422 10.2265625 12.42578125 C6.34384255 11.91341264 4.77712767 10.69706634 2 8 C-0.00796384 4.94024557 0 3.85514114 0 0 Z " fill="#EADF71" transform="translate(125,207)"/>
<path d="M0 0 C1 1 1 1 1.3125 3.375 C1 6 1 6 -0.75 7.75 C-6.1919539 10.77330772 -12.06518471 10.18362048 -18.125 10.1875 C-19.13949219 10.19974609 -20.15398437 10.21199219 -21.19921875 10.22460938 C-22.16730469 10.22654297 -23.13539063 10.22847656 -24.1328125 10.23046875 C-25.46143311 10.23663208 -25.46143311 10.23663208 -26.81689453 10.24291992 C-29 10 -29 10 -31 8 C-31 5.125 -31 5.125 -30 2 C-21.70441101 -4.82081761 -9.27594194 -5.27042155 0 0 Z M-29 4 C-28.6814823 6.10820797 -28.6814823 6.10820797 -28 8 C-24.43765572 8.08741124 -20.87558892 8.14052896 -17.3125 8.1875 C-16.30509766 8.21263672 -15.29769531 8.23777344 -14.25976562 8.26367188 C-7.03673488 8.51640425 -7.03673488 8.51640425 -1 5 C-1 3.68 -1 2.36 -1 1 C-5.22435879 -1.03515174 -8.77274825 -1.29840709 -13.4375 -1.3125 C-14.71496094 -1.32925781 -15.99242187 -1.34601563 -17.30859375 -1.36328125 C-22.1781446 -0.88405561 -25.5348357 0.5348357 -29 4 Z " fill="#3D2B10" transform="translate(179,145)"/>
<path d="M0 0 C1.36414206 0.95754593 2.70465789 1.95125475 4 3 C2.57107422 3.16435547 2.57107422 3.16435547 1.11328125 3.33203125 C-0.76810547 3.56986328 -0.76810547 3.56986328 -2.6875 3.8125 C-3.92886719 3.96332031 -5.17023438 4.11414063 -6.44921875 4.26953125 C-9.97938874 4.99575984 -12.15872384 5.80951894 -15 8 C-16.20152492 12.08614528 -16.20152492 12.08614528 -15 16 C-15.99 15.67 -16.98 15.34 -18 15 C-18.33 13.02 -18.66 11.04 -19 9 C-20.98 9.99 -20.98 9.99 -23 11 C-23 10.34 -23 9.68 -23 9 C-25.46326712 7.3553326 -25.46326712 7.3553326 -28 6 C-27.67 4.35 -27.34 2.7 -27 1 C-25.1875 0.3125 -25.1875 0.3125 -23 0 C-21.25 1.25 -21.25 1.25 -20 3 C-20 3.99 -20 4.98 -20 6 C-17.64828869 5.40138258 -15.3140622 4.73075648 -13 4 C-12.67 3.34 -12.34 2.68 -12 2 C-7.81635459 -1.32230665 -5.10632214 -1.29979109 0 0 Z " fill="#EDE373" transform="translate(165,139)"/>
<path d="M0 0 C1.51566056 2.94939352 2.86290106 5.93356701 4.125 9 C4.47820312 9.845625 4.83140625 10.69125 5.1953125 11.5625 C6 14 6 14 6 18 C-0.26721763 18.48209366 -0.26721763 18.48209366 -3.375 16.4375 C-5.61713359 13.07429961 -6.13763295 11.06017207 -6 7 C-4.29907025 4.34262039 -2.27836238 2.1726992 0 0 Z " fill="#3B221A" transform="translate(104,168)"/>
<path d="M0 0 C0.66 0 1.32 0 2 0 C2.33 0.99 2.66 1.98 3 3 C5.43276386 4.18519265 7.28017286 5 10 5 C9.46884894 9.51478398 7.63379708 12.34666857 5 16 C4.67 14.68 4.34 13.36 4 12 C2.7315625 12.12375 2.7315625 12.12375 1.4375 12.25 C-3.03634062 11.92462977 -5.24893952 10.40067871 -9 8 C-8.39414063 7.90847656 -7.78828125 7.81695312 -7.1640625 7.72265625 C-4.46325816 6.8207631 -3.86564474 5.81772305 -2.375 3.4375 C-1.1484375 1.49609375 -1.1484375 1.49609375 0 0 Z " fill="#F0BED3" transform="translate(93,263)"/>
<path d="M0 0 C0.99 0.33 1.98 0.66 3 1 C3.99 0.67 4.98 0.34 6 0 C6.66 1.65 7.32 3.3 8 5 C9.65 4.34 11.3 3.68 13 3 C13.33 6.96 13.66 10.92 14 15 C13.34 15 12.68 15 12 15 C12 12.36 12 9.72 12 7 C11.34 7 10.68 7 10 7 C9.566875 7.8971875 9.566875 7.8971875 9.125 8.8125 C8 11 8 11 6 14 C5.34 14 4.68 14 4 14 C4 13.01 4 12.02 4 11 C3.34 11 2.68 11 2 11 C1.34 10.34 0.68 9.68 0 9 C-0.33 9.66 -0.66 10.32 -1 11 C-1.66 11 -2.32 11 -3 11 C-1.125 3.375 -1.125 3.375 0 0 Z " fill="#C190A5" transform="translate(120,276)"/>
<path d="M0 0 C0.33 0.66 0.66 1.32 1 2 C1.598125 1.649375 2.19625 1.29875 2.8125 0.9375 C5 0 5 0 8 1 C9.51013838 4.39781136 9.06172522 7.51147428 8 11 C4.95818743 12.99890541 3.30668653 13.03471923 -0.3125 12.625 C-1.199375 12.41875 -2.08625 12.2125 -3 12 C-3.94721072 9.39517051 -4.30222393 7.69325299 -3.17578125 5.109375 C-2.17063275 3.37417127 -1.0893855 1.68359577 0 0 Z " fill="#DEB4C7" transform="translate(61,236)"/>
<path d="M0 0 C2.49361571 1.20381448 4.68143083 2.45428722 7 4 C7.825 3.835 8.65 3.67 9.5 3.5 C12 3 12 3 15 5 C15 5.66 15 6.32 15 7 C14.34 7 13.68 7 13 7 C13 6.34 13 5.68 13 5 C11.68 5 10.36 5 9 5 C9.495 5.7425 9.99 6.485 10.5 7.25 C12 10 12 10 12 14 C9.1875 14.3125 9.1875 14.3125 6 14 C4.3125 11.5625 4.3125 11.5625 3 9 C2.01 8.67 1.02 8.34 0 8 C-0.33 8.99 -0.66 9.98 -1 11 C-1.66 11 -2.32 11 -3 11 C-2.44894091 7.0507432 -1.61064629 3.65079826 0 0 Z " fill="#E9B9CE" transform="translate(199,33)"/>
<path d="M0 0 C5.75 1.75 5.75 1.75 8 4 C7.625 7.125 7.625 7.125 7 10 C6.01 10.33 5.02 10.66 4 11 C2.79117904 13.00016466 2.79117904 13.00016466 2 15 C1.75507813 14.38640625 1.51015625 13.7728125 1.2578125 13.140625 C-0.25052285 10.57364433 -1.44256788 9.96142096 -4.125 8.75 C-4.84945312 8.41484375 -5.57390625 8.0796875 -6.3203125 7.734375 C-6.87460938 7.49203125 -7.42890625 7.2496875 -8 7 C-6.75 4.5 -6.75 4.5 -5 2 C-3.68 2 -2.36 2 -1 2 C-0.67 1.34 -0.34 0.68 0 0 Z " fill="#EBDF65" transform="translate(179,135)"/>
<path d="M0 0 C0.99 0 1.98 0 3 0 C2.34 1.65 1.68 3.3 1 5 C2.65 5 4.3 5 6 5 C2.15767572 7.56154952 -0.76943114 8.36082732 -5.390625 7.61328125 C-7.60874764 7.12152765 -9.80610963 6.58991274 -12 6 C-12 6.66 -12 7.32 -12 8 C-12.66 8 -13.32 8 -14 8 C-14.33 9.32 -14.66 10.64 -15 12 C-16.32 12 -17.64 12 -19 12 C-19 10.68 -19 9.36 -19 8 C-19.598125 8.350625 -20.19625 8.70125 -20.8125 9.0625 C-23 10 -23 10 -26 9 C-19.16714816 4.92936486 -13.96475086 3.23741747 -6 4 C-5.67 3.01 -5.34 2.02 -5 1 C-3.68 1 -2.36 1 -1 1 C-0.67 0.67 -0.34 0.34 0 0 Z M-5 8 C-3 9 -3 9 -3 9 Z " fill="#FCEE68" transform="translate(165,100)"/>
<path d="M0 0 C0.45955844 4.59558436 0.84287791 8.61113628 -2.0625 12.4375 C-5.89653901 15.78208723 -9.0768529 17.14872152 -14.2265625 16.88671875 C-16.16010748 16.65783622 -18.08224456 16.33644832 -20 16 C-20 15.34 -20 14.68 -20 14 C-18.1746875 13.5978125 -18.1746875 13.5978125 -16.3125 13.1875 C-12.72522847 12.25582347 -9.86517748 11.45586641 -7 9 C-6.08189024 6.93944597 -5.38571709 4.91299695 -4.7734375 2.7421875 C-4.51820313 2.16726562 -4.26296875 1.59234375 -4 1 C-1 0 -1 0 0 0 Z " fill="#A4AEAF" transform="translate(159,168)"/>
<path d="M0 0 C2.5625 0.3125 2.5625 0.3125 4.375 1.375 C6.22751934 4.39753156 5.93893703 6.86182719 5.5625 10.3125 C2.34947711 12.45451526 1.29540719 12.96575876 -2.4375 12.3125 C-4.73485722 9.63224992 -5.49738304 8.17082354 -5.25 4.625 C-4.15114034 1.49747636 -3.3418207 0.42843855 0 0 Z " fill="#30161F" transform="translate(217.4375,266.6875)"/>
<path d="M0 0 C0.58007812 0.13277344 1.16015625 0.26554688 1.7578125 0.40234375 C6.15770982 1.39704001 10.53894158 2.31368332 15 3 C9.21799838 6.85466775 2.96412921 8.65699332 -4 8 C-7.4375 7 -7.4375 7 -10 6 C-7.8125 3.4375 -7.8125 3.4375 -5 1 C-2.1875 1.1875 -2.1875 1.1875 0 2 C0 1.34 0 0.68 0 0 Z " fill="#F0E66B" transform="translate(131,164)"/>
<path d="M0 0 C1.670625 0.061875 1.670625 0.061875 3.375 0.125 C4.88162097 3.13824195 4.55270373 5.80786377 4.375 9.125 C2.375 11.125 2.375 11.125 -0.625 11.375 C-3.625 11.125 -3.625 11.125 -5.625 9.125 C-5.875 5.625 -5.875 5.625 -5.625 2.125 C-3.625 0.125 -3.625 0.125 0 0 Z " fill="#29121C" transform="translate(149.625,26.875)"/>
<path d="M0 0 C0.66 0.33 1.32 0.66 2 1 C2.6328125 3.28515625 2.6328125 3.28515625 3.125 6.0625 C3.29257813 6.98160156 3.46015625 7.90070313 3.6328125 8.84765625 C3.75398437 9.55792969 3.87515625 10.26820313 4 11 C-0.625 14 -0.625 14 -4 14 C-5.6875 11.5 -5.6875 11.5 -7 9 C-7.66 9.66 -8.32 10.32 -9 11 C-9 9.35 -9 7.7 -9 6 C-8.34 6 -7.68 6 -7 6 C-6.67 5.34 -6.34 4.68 -6 4 C-3.03 4.495 -3.03 4.495 0 5 C0 3.35 0 1.7 0 0 Z " fill="#EBB9CF" transform="translate(183,279)"/>
<path d="M0 0 C2.31 0 4.62 0 7 0 C7 3.63 7 7.26 7 11 C2.545 11.495 2.545 11.495 -2 12 C-1.85904936 10.3745692 -1.71207913 8.74965949 -1.5625 7.125 C-1.48128906 6.22007812 -1.40007812 5.31515625 -1.31640625 4.3828125 C-1 2 -1 2 0 0 Z " fill="#E690AE" transform="translate(119,172)"/>
<path d="M0 0 C1.32 0 2.64 0 4 0 C4.33 0.66 4.66 1.32 5 2 C6.89533342 2.46523063 6.89533342 2.46523063 9.0625 2.625 C10.361875 2.74875 11.66125 2.8725 13 3 C12.46884894 7.51478398 10.63379708 10.34666857 8 14 C6.68 13.67 5.36 13.34 4 13 C4.33 11.35 4.66 9.7 5 8 C4.34 8 3.68 8 3 8 C0 2.25 0 2.25 0 0 Z " fill="#EDBED3" transform="translate(208,38)"/>
<path d="M0 0 C0 1.65 0 3.3 0 5 C-0.99 5 -1.98 5 -3 5 C-2.979375 6.093125 -2.95875 7.18625 -2.9375 8.3125 C-3 12 -3 12 -4 15 C-4.66 15 -5.32 15 -6 15 C-6.598125 14.38125 -7.19625 13.7625 -7.8125 13.125 C-10.12505706 10.878516 -11.97199019 10.0093366 -15 9 C-15 8.34 -15 7.68 -15 7 C-12.69 7.66 -10.38 8.32 -8 9 C-8 6.36 -8 3.72 -8 1 C-5.23735711 0.40267181 -2.83967231 0 0 0 Z " fill="#E8B7CC" transform="translate(95,44)"/>
<path d="M0 0 C-1.12451727 2.9719385 -2.22293791 5.33440687 -4 8 C-1.36 8 1.28 8 4 8 C2.50958227 11.79379058 0.30937488 13.68343758 -3 16 C-3.66 16 -4.32 16 -5 16 C-3.25 12.125 -3.25 12.125 -1 11 C-3.31 10.67 -5.62 10.34 -8 10 C-7.34 8.35 -6.68 6.7 -6 5 C-6.66 5 -7.32 5 -8 5 C-8.99 5 -9.98 5 -11 5 C-11 4.34 -11 3.68 -11 3 C-9.73160474 2.49384702 -8.46016898 1.99530901 -7.1875 1.5 C-6.12595703 1.08234375 -6.12595703 1.08234375 -5.04296875 0.65625 C-3 0 -3 0 0 0 Z " fill="#381E29" transform="translate(273,89)"/>
<path d="M0 0 C0.66 0 1.32 0 2 0 C1 3 1 3 -2 5.375 C-5.27564317 8.24118777 -5.34559519 8.9645037 -6 13 C-8.0625 14.3125 -8.0625 14.3125 -10 15 C-9.87625 16.1446875 -9.87625 16.1446875 -9.75 17.3125 C-9.8325 18.199375 -9.915 19.08625 -10 20 C-12 21.625 -12 21.625 -14 23 C-14 23.99 -14 24.98 -14 26 C-14.66 26 -15.32 26 -16 26 C-16.66 28.31 -17.32 30.62 -18 33 C-18.66 33 -19.32 33 -20 33 C-16.21241747 19.85486064 -9.62916105 9.62916105 0 0 Z " fill="#E4DA70" transform="translate(137,110)"/>
<path d="M0 0 C0.66 0 1.32 0 2 0 C2 4.29 2 8.58 2 13 C-4 13 -4 13 -6 12 C-5.79375 10.9275 -5.5875 9.855 -5.375 8.75 C-5.0123809 5.12380904 -5.01637931 3.91708924 -7 1 C-4.11562221 2.29299694 -2.12780579 3.65941363 0 6 C0 4.02 0 2.04 0 0 Z " fill="#533844" transform="translate(156,281)"/>
<path d="M0 0 C-1.75 3.875 -1.75 3.875 -4 5 C-1.69 5.33 0.62 5.66 3 6 C1.79618552 8.49361571 0.54571278 10.68143083 -1 13 C-0.401875 12.649375 0.19625 12.29875 0.8125 11.9375 C3 11 3 11 6 12 C4.73308493 12.67408308 3.46129251 13.33900497 2.1875 14 C1.47980469 14.37125 0.77210937 14.7425 0.04296875 15.125 C-2 16 -2 16 -5 16 C-3.87548273 13.0280615 -2.77706209 10.66559313 -1 8 C-3.64 8 -6.28 8 -9 8 C-7.47364599 4.11473526 -4.49771687 0 0 0 Z " fill="#2D131D" transform="translate(50,215)"/>
<path d="M0 0 C2.31 0 4.62 0 7 0 C7.70074844 3.153368 8 5.72724974 8 9 C8.33 9.99 8.66 10.98 9 12 C5.66462511 10.88820837 4.36292656 9.52588702 2 7 C2 8.98 2 10.96 2 13 C1.34 13 0.68 13 0 13 C0 8.71 0 4.42 0 0 Z " fill="#523945" transform="translate(160,26)"/>
<path d="M0 0 C0.56847656 0.33773437 1.13695313 0.67546875 1.72265625 1.0234375 C2.49480469 1.46945313 3.26695312 1.91546875 4.0625 2.375 C5.19365234 3.03628906 5.19365234 3.03628906 6.34765625 3.7109375 C13.96581989 7.41343235 21.26635489 7.37943138 29.625 7.5625 C32.03394948 7.62259587 34.44281323 7.68625966 36.8515625 7.75390625 C37.91197754 7.77783447 38.97239258 7.8017627 40.06494141 7.82641602 C42.80420282 7.98842025 45.32909223 8.38821233 48 9 C48 9.33 48 9.66 48 10 C46.0085944 10.38133299 44.00720923 10.71325582 42 11 C41.505 10.505 41.505 10.505 41 10 C39.28516212 9.97357432 37.5692488 10.01235885 35.85546875 10.078125 C21.1642044 10.48287979 10.70923533 10.716174 -1 1 C-0.67 0.67 -0.34 0.34 0 0 Z " fill="#3E330A" transform="translate(126,205)"/>
<path d="M0 0 C0.99 0.33 1.98 0.66 3 1 C3.6875 3.0625 3.6875 3.0625 4 5 C4.99 4.34 5.98 3.68 7 3 C9.6875 2.875 9.6875 2.875 12 3 C12.66 4.98 13.32 6.96 14 9 C12.35 9.33 10.7 9.66 9 10 C9.66 8.35 10.32 6.7 11 5 C9.8553125 5.7734375 9.8553125 5.7734375 8.6875 6.5625 C7.800625 7.036875 6.91375 7.51125 6 8 C5.01 7.67 4.02 7.34 3 7 C2.67 7.66 2.34 8.32 2 9 C0.35 9 -1.3 9 -3 9 C-2.34 8.67 -1.68 8.34 -1 8 C-1.020625 6.865625 -1.04125 5.73125 -1.0625 4.5625 C-1 1 -1 1 0 0 Z " fill="#2C2512" transform="translate(157,95)"/>
<path d="M0 0 C7.9264508 -0.45260846 13.65282945 3.1847636 19.60546875 8.19140625 C23.67144661 12.11145994 26.96192279 15.70099924 29 21 C28.34 21.66 27.68 22.32 27 23 C26.20602761 21.75146327 25.41492783 20.50109957 24.625 19.25 C24.18414062 18.55390625 23.74328125 17.8578125 23.2890625 17.140625 C22 15 22 15 21.0859375 12.859375 C19.70255611 10.49070758 18.49669201 10.07384603 16 9 C14.36911464 8.00962737 12.74443208 7.00899195 11.125 6 C7.49785395 3.80010372 4.13317719 2.08767821 0 1 C0 0.67 0 0.34 0 0 Z " fill="#201907" transform="translate(169,104)"/>
<path d="M0 0 C3.81684226 1.55500981 6.19195732 4.03595495 9 7 C8.67 7.33 8.34 7.66 8 8 C6.47480724 7.91062197 4.95318071 7.75462854 3.4375 7.5625 C2.19806641 7.40974609 2.19806641 7.40974609 0.93359375 7.25390625 C0.29550781 7.17011719 -0.34257812 7.08632812 -1 7 C-1 7.66 -1 8.32 -1 9 C-0.38125 9.309375 0.2375 9.61875 0.875 9.9375 C2.25 10.625 3.625 11.3125 5 12 C5 12.66 5 13.32 5 14 C0.58968355 13.49111733 -1.89327599 10.96550928 -5 8 C-5 7.01 -5 6.02 -5 5 C-1.535 4.505 -1.535 4.505 2 4 C1.34 2.68 0.68 1.36 0 0 Z " fill="#321722" transform="translate(257,232)"/>
<path d="M0 0 C3.96790076 1.67872725 6.86931494 4.08277074 10 7 C10 7.99 10 8.98 10 10 C7.69 10.33 5.38 10.66 3 11 C3.66 12.32 4.32 13.64 5 15 C2.04987143 13.63029745 -0.5652222 12.17390875 -3 10 C-3 9.01 -3 8.02 -3 7 C-0.03 7 2.94 7 6 7 C5.01 6.21625 4.02 5.4325 3 4.625 C2.01 3.75875 1.02 2.8925 0 2 C0 1.34 0 0.68 0 0 Z " fill="#29121B" transform="translate(56,73)"/>
<path d="M0 0 C3.33773709 3.64116773 3.97864902 7.28607242 5 12 C2.29686424 12.21917317 0.56041618 12.32851983 -1.8125 10.9375 C-3.66501934 7.91496844 -3.37643703 5.45067281 -3 2 C-2.01 1.34 -1.02 0.68 0 0 Z " fill="#D48AA5" transform="translate(103,172)"/>
<path d="M0 0 C0 2.97 0 5.94 0 9 C0.78375 8.01 1.5675 7.02 2.375 6 C3.24125 5.01 4.1075 4.02 5 3 C5.66 3 6.32 3 7 3 C5.40907948 7.13639336 2.39525082 10.23213248 -1 13 C-1.66 13 -2.32 13 -3 13 C-3 10.36 -3 7.72 -3 5 C-3.45375 5.495 -3.9075 5.99 -4.375 6.5 C-6 8 -6 8 -8 8 C-6.48291727 4.46014029 -4.24676932 0 0 0 Z " fill="#2E1722" transform="translate(246,59)"/>
<path d="M0 0 C1.6254308 0.14095064 3.25034051 0.28792087 4.875 0.4375 C5.77992187 0.51871094 6.68484375 0.59992188 7.6171875 0.68359375 C10 1 10 1 12 2 C12 2.66 12 3.32 12 4 C10.35 4 8.7 4 7 4 C7.33 6.31 7.66 8.62 8 11 C4.50892621 9.83630874 4.14777237 9.11026462 2.3125 6.0625 C1.87550781 5.35222656 1.43851563 4.64195313 0.98828125 3.91015625 C0 2 0 2 0 0 Z " fill="#331822" transform="translate(46,89)"/>
<path d="M0 0 C0 2.64 0 5.28 0 8 C0.45375 7.505 0.9075 7.01 1.375 6.5 C3 5 3 5 5 5 C3.55922954 8.36179774 1.75249979 10.59156268 -1 13 C-1.66 13 -2.32 13 -3 13 C-3 10.03 -3 7.06 -3 4 C-4.65 5.65 -6.3 7.3 -8 9 C-8.66 8.67 -9.32 8.34 -10 8 C-8.90653119 6.65787938 -7.7998425 5.32652025 -6.6875 4 C-5.76517578 2.88625 -5.76517578 2.88625 -4.82421875 1.75 C-3 0 -3 0 0 0 Z " fill="#241019" transform="translate(75,248)"/>
<path d="M0 0 C1.12894876 0.93274109 2.25300876 1.87140122 3.375 2.8125 C4.00148437 3.33457031 4.62796875 3.85664063 5.2734375 4.39453125 C7 6 7 6 9 9 C8.01 9 7.02 9 6 9 C5.34 8.34 4.68 7.68 4 7 C3.67 9.31 3.34 11.62 3 14 C2.67 14 2.34 14 2 14 C2 12.02 2 10.04 2 8 C-0.97 8 -3.94 8 -7 8 C-7 7.34 -7 6.68 -7 6 C-4.36 6 -1.72 6 1 6 C0.34 4.35 -0.32 2.7 -1 1 C-0.67 0.67 -0.34 0.34 0 0 Z " fill="#351C27" transform="translate(247,243)"/>
<path d="M0 0 C0.33 0 0.66 0 1 0 C1 1.98 1 3.96 1 6 C3.97 6 6.94 6 10 6 C9.67 6.66 9.34 7.32 9 8 C6.69 8 4.38 8 2 8 C2.66 9.65 3.32 11.3 4 13 C-0.42761914 11.60846256 -2.9556255 9.47928514 -6 6 C-6 5.34 -6 4.68 -6 4 C-2.125 5.875 -2.125 5.875 -1 7 C-0.67 4.69 -0.34 2.38 0 0 Z " fill="#361C26" transform="translate(68,63)"/>
<path d="M0 0 C2 3.75 2 3.75 2 6 C3.98 5.67 5.96 5.34 8 5 C6.35 6.65 4.7 8.3 3 10 C2.67 9.34 2.34 8.68 2 8 C-0.64 8.33 -3.28 8.66 -6 9 C-4.68775452 5.06326356 -3.08089673 2.77280706 0 0 Z " fill="#E6B8CC" transform="translate(238,53)"/>
<path d="M0 0 C3.63 0.33 7.26 0.66 11 1 C11 1.33 11 1.66 11 2 C9.35 2 7.7 2 6 2 C7.08656644 6.93133998 8.1009238 10.78316189 11 15 C10.4225 14.690625 9.845 14.38125 9.25 14.0625 C7.0661063 12.9327131 7.0661063 12.9327131 4.8125 12.5 C4.214375 12.335 3.61625 12.17 3 12 C1.50702788 9.01405576 1.88244772 6.29146376 2 3 C2.33 2.34 2.66 1.68 3 1 C2.01 0.67 1.02 0.34 0 0 Z M4 3 C3.30840599 4.84725052 3.30840599 4.84725052 3 7 C3.99 8.485 3.99 8.485 5 10 C5 7.69 5 5.38 5 3 C4.67 3 4.34 3 4 3 Z " fill="#2C1F18" transform="translate(123,171)"/>
<path d="M0 0 C3.87192854 3.87192854 5.70308124 10.11628902 6.2578125 15.50390625 C6.25125066 17.33794025 6.13802601 19.1711554 6 21 C6.66 21 7.32 21 8 21 C7.95875 19.906875 7.9175 18.81375 7.875 17.6875 C8 14 8 14 10 11 C10.63019694 19.19256018 10.63019694 19.19256018 8 22.5625 C7.34 23.036875 6.68 23.51125 6 24 C5 23 5 23 4.6875 19.0625 C4.2369213 14.3614622 2.77713839 10.54307096 0.83984375 6.26171875 C0 4 0 4 0 0 Z " fill="#ECE27A" transform="translate(105,168)"/>
<path d="M0 0 C0.80824219 0.10183594 1.61648437 0.20367187 2.44921875 0.30859375 C3.06410156 0.39238281 3.67898437 0.47617188 4.3125 0.5625 C0.97579126 2.56283677 -1.578668 2.81947454 -5.44140625 2.828125 C-6.54291016 2.83070313 -7.64441406 2.83328125 -8.77929688 2.8359375 C-9.92462891 2.82820312 -11.06996094 2.82046875 -12.25 2.8125 C-13.39919922 2.82023438 -14.54839844 2.82796875 -15.73242188 2.8359375 C-16.83263672 2.83335937 -17.93285156 2.83078125 -19.06640625 2.828125 C-20.57569702 2.82474121 -20.57569702 2.82474121 -22.11547852 2.82128906 C-24.6875 2.5625 -24.6875 2.5625 -27.6875 0.5625 C-26.80227661 0.57035522 -26.80227661 0.57035522 -25.89916992 0.57836914 C-23.22445745 0.59916047 -20.54976199 0.61216701 -17.875 0.625 C-16.4818457 0.63756836 -16.4818457 0.63756836 -15.06054688 0.65039062 C-14.16787109 0.65361328 -13.27519531 0.65683594 -12.35546875 0.66015625 C-11.53328857 0.66539307 -10.7111084 0.67062988 -9.86401367 0.67602539 C-6.25224986 0.48763838 -3.70523517 -0.48329154 0 0 Z " fill="#F6EC7C" transform="translate(170.6875,210.4375)"/>
<path d="M0 0 C-0.33 0.99 -0.66 1.98 -1 3 C-1.66 3 -2.32 3 -3 3 C-3.33 4.32 -3.66 5.64 -4 7 C-5.32 7 -6.64 7 -8 7 C-8 5.68 -8 4.36 -8 3 C-8.598125 3.350625 -9.19625 3.70125 -9.8125 4.0625 C-12 5 -12 5 -15 4 C-9.60931587 0.40621058 -6.46326465 -0.45356243 0 0 Z " fill="#F1E46B" transform="translate(154,105)"/>
<path d="M0 0 C4.12751449 0.60698743 7.3321148 2.03810791 11 4 C8.92446352 4.5534764 7.15634036 5 5 5 C5 6.32 5 7.64 5 9 C5.66 9.33 6.32 9.66 7 10 C7 10.66 7 11.32 7 12 C5.51800098 11.55090939 4.03944764 11.09043436 2.5625 10.625 C1.73878906 10.36976563 0.91507812 10.11453125 0.06640625 9.8515625 C-2 9 -2 9 -3 7 C-0.525 7.495 -0.525 7.495 2 8 C2.33 6.02 2.66 4.04 3 2 C2.01 1.67 1.02 1.34 0 1 C0 0.67 0 0.34 0 0 Z " fill="#2E171F" transform="translate(270,208)"/>
<path d="M0 0 C0.66 0 1.32 0 2 0 C2 2.97 2 5.94 2 9 C2.66 9 3.32 9 4 9 C4.28875 8.401875 4.5775 7.80375 4.875 7.1875 C6 5 6 5 8 2 C8.66 2 9.32 2 10 2 C8.22054913 6.04420651 5.60470327 9.46078487 3 13 C2.01 12.67 1.02 12.34 0 12 C0 8.04 0 4.08 0 0 Z " fill="#3F222E" transform="translate(184,28)"/>
<path d="M0 0 C3.49107379 1.16369126 3.85222763 1.88973538 5.6875 4.9375 C6.34298828 6.00291016 6.34298828 6.00291016 7.01171875 7.08984375 C8 9 8 9 8 11 C6.35 11 4.7 11 3 11 C3 10.34 3 9.68 3 9 C3.66 9 4.32 9 5 9 C4.34 8.34 3.68 7.68 3 7 C2.67 7.66 2.34 8.32 2 9 C0.02 9 -1.96 9 -4 9 C-4 8.34 -4 7.68 -4 7 C-3.360625 6.896875 -2.72125 6.79375 -2.0625 6.6875 C-1.381875 6.460625 -0.70125 6.23375 0 6 C1.33333333 3 1.33333333 3 0 0 Z " fill="#3B202A" transform="translate(264,220)"/>
<path d="M0 0 C0.99 0 1.98 0 3 0 C3 2.125 3 2.125 2 5 C-1.52099499 8.29539348 -5.55471647 11.10544049 -10 13 C-12.25 12.625 -12.25 12.625 -14 12 C-13.34 11.34 -12.68 10.68 -12 10 C-10.68 10 -9.36 10 -8 10 C-7.67 9.01 -7.34 8.02 -7 7 C-3.9375 5.8125 -3.9375 5.8125 -1 5 C-0.67 3.35 -0.34 1.7 0 0 Z " fill="#EFE671" transform="translate(194,198)"/>
<path d="M0 0 C2.125 0.9375 2.125 0.9375 4 2 C-0.62121328 4.31060664 -4.92376965 4.08460384 -10 4 C-9.67 5.65 -9.34 7.3 -9 9 C-8.34 9 -7.68 9 -7 9 C-7 9.99 -7 10.98 -7 12 C-6.34 12 -5.68 12 -5 12 C-5 13.65 -5 15.3 -5 17 C-8.30979968 14.18667027 -10.1048141 10.858057 -12 7 C-11.609375 4.77734375 -11.609375 4.77734375 -11 3 C-10.37351562 2.86722656 -9.74703125 2.73445312 -9.1015625 2.59765625 C-8.28429687 2.42105469 -7.46703125 2.24445313 -6.625 2.0625 C-5.81289062 1.88847656 -5.00078125 1.71445313 -4.1640625 1.53515625 C-1.970537 1.07669307 -1.970537 1.07669307 0 0 Z " fill="#E8DD79" transform="translate(128,183)"/>
<path d="M0 0 C0.33 1.65 0.66 3.3 1 5 C0.608125 4.484375 0.21625 3.96875 -0.1875 3.4375 C-1.94927554 1.72513271 -1.94927554 1.72513271 -4.5625 2.0625 C-7.14661024 2.77905218 -7.14661024 2.77905218 -8.3125 5.0625 C-8.539375 5.701875 -8.76625 6.34125 -9 7 C-8.01 6.67 -7.02 6.34 -6 6 C-6 5.34 -6 4.68 -6 4 C-5.01 4.33 -4.02 4.66 -3 5 C-3.33 6.32 -3.66 7.64 -4 9 C-5.66611905 9.042721 -7.33382885 9.04063832 -9 9 C-10 8 -10 8 -10.3125 5.125 C-10 2 -10 2 -8.375 0.0625 C-5.23872457 -1.34057059 -3.27549981 -0.81887495 0 0 Z " fill="#3D1E2A" transform="translate(260,72)"/>
<path d="M0 0 C3.3 0 6.6 0 10 0 C8.04783565 3.90432869 6.12613393 6.03839944 3 9 C2.896875 8.401875 2.79375 7.80375 2.6875 7.1875 C1.91123545 4.71756736 0.92911079 3.67748765 -1 2 C-0.67 1.34 -0.34 0.68 0 0 Z " fill="#F2BDD4" transform="translate(76,258)"/>
<path d="M0 0 C2.5625 0.1875 2.5625 0.1875 4.5625 2.1875 C4.02678571 5.72321429 4.02678571 5.72321429 2.5625 7.1875 C0.0625 7.3125 0.0625 7.3125 -2.4375 7.1875 C-3.4375 6.1875 -3.4375 6.1875 -3.5625 3.6875 C-3.39599509 0.35740177 -3.31519894 0.2550153 0 0 Z " fill="#30270B" transform="translate(182.4375,136.8125)"/>
<path d="M0 0 C1.48199902 0.44909061 2.96055236 0.90956564 4.4375 1.375 C5.26121094 1.63023438 6.08492187 1.88546875 6.93359375 2.1484375 C9 3 9 3 10 5 C8.35 4.67 6.7 4.34 5 4 C4.67 5.98 4.34 7.96 4 10 C4.99 10 5.98 10 7 10 C7 10.66 7 11.32 7 12 C2.2482602 11.56802365 0.07999946 10.67230705 -3 7 C-0.03 7.495 -0.03 7.495 3 8 C3 6.35 3 4.7 3 3 C2.01 2.67 1.02 2.34 0 2 C0 1.34 0 0.68 0 0 Z " fill="#2C141E" transform="translate(41,100)"/>
<path d="M0 0 C2.125 0.375 2.125 0.375 4 1 C4 3.31 4 5.62 4 8 C2.34385343 8.38218767 0.67542976 8.71395102 -1 9 C-2 8 -2 8 -2.1875 5.0625 C-2 2 -2 2 0 0 Z " fill="#E6B9CD" transform="translate(148,28)"/>
<path d="M0 0 C1.66611905 -0.042721 3.33382885 -0.04063832 5 0 C6 1 6 1 6.3125 3.875 C6 7 6 7 4.375 8.9375 C1.23872457 10.34057059 -0.72450019 9.81887495 -4 9 C-4.33 7.35 -4.66 5.7 -5 4 C-4.608125 4.515625 -4.21625 5.03125 -3.8125 5.5625 C-3.214375 6.036875 -2.61625 6.51125 -2 7 C0.65466049 6.76956136 0.65466049 6.76956136 3 6 C3.33 4.68 3.66 3.36 4 2 C3.01 2.495 3.01 2.495 2 3 C2 3.66 2 4.32 2 5 C1.01 4.67 0.02 4.34 -1 4 C-0.67 2.68 -0.34 1.36 0 0 Z " fill="#331723" transform="translate(62,239)"/>
<path d="M0 0 C3.69378943 2.14911385 7.16931026 4.4867711 10.625 7 C11.56601563 7.680625 12.50703125 8.36125 13.4765625 9.0625 C15.4984733 10.61492687 17.26825274 12.14040563 19 14 C16.28163459 12.99032142 13.93917632 11.96046461 11.5 10.375 C8.72868963 8.85077929 7.11018994 8.73341229 4 9 C2.5393715 6.35261084 2 5.10551666 2 2 C1.34 2 0.68 2 0 2 C0 1.34 0 0.68 0 0 Z " fill="#725463" transform="translate(87,237)"/>
<path d="M0 0 C2.375 0.25 2.375 0.25 5 1 C6.3125 3.0625 6.3125 3.0625 7 5 C6.34 5 5.68 5 5 5 C4.67 4.34 4.34 3.68 4 3 C3.01 2.67 2.02 2.34 1 2 C1.515625 2.7425 2.03125 3.485 2.5625 4.25 C4 7 4 7 3.6875 9.3125 C3.460625 9.869375 3.23375 10.42625 3 11 C1.1875 11.625 1.1875 11.625 -1 12 C-1.99 11.34 -2.98 10.68 -4 10 C-4 9.34 -4 8.68 -4 8 C-2.02 8.66 -0.04 9.32 2 10 C1.2265625 8.9171875 1.2265625 8.9171875 0.4375 7.8125 C-1.21442982 4.5804634 -1.06351675 3.38391693 0 0 Z " fill="#381C28" transform="translate(108,272)"/>
<path d="M0 0 C2.375 -0.1875 2.375 -0.1875 5 0 C7 3 7 3 6.625 5.1875 C6.41875 5.785625 6.2125 6.38375 6 7 C4.125 7.625 4.125 7.625 2 8 C0 6 0 6 -0.125 2.875 C-0.08375 1.92625 -0.0425 0.9775 0 0 Z " fill="#E8BDD1" transform="translate(97,43)"/>
<path d="M0 0 C0.66 0 1.32 0 2 0 C2.125 7.75 2.125 7.75 1 10 C1.99 10.33 2.98 10.66 4 11 C2.02 11.33 0.04 11.66 -2 12 C-2.66 11.01 -3.32 10.02 -4 9 C-3.01 8.01 -2.02 7.02 -1 6 C-1.99 5.67 -2.98 5.34 -4 5 C-2.71937515 3.2925002 -1.38232443 1.62626404 0 0 Z " fill="#E8B8CD" transform="translate(130,283)"/>
<path d="M0 0 C1.67542976 0.28604898 3.34385343 0.61781233 5 1 C5.04254356 2.99954746 5.04080783 5.00041636 5 7 C4 8 4 8 1.4375 8.0625 C0.633125 8.041875 -0.17125 8.02125 -1 8 C-1.04241723 5.66705225 -1.04092937 3.33297433 -1 1 C-0.67 0.67 -0.34 0.34 0 0 Z " fill="#ECBED3" transform="translate(167,283)"/>
<path d="M0 0 C0 3 0 3 -1.5 4.6875 C-1.995 5.120625 -2.49 5.55375 -3 6 C-1.68 6.66 -0.36 7.32 1 8 C-1.31 8.33 -3.62 8.66 -6 9 C-6.33 11.64 -6.66 14.28 -7 17 C-7.66 16.34 -8.32 15.68 -9 15 C-8.77278491 10.00126805 -7.03855308 6.90671111 -4 3 C-1.75 1.125 -1.75 1.125 0 0 Z " fill="#644431" transform="translate(125,163)"/>
<path d="M0 0 C2.97 0.495 2.97 0.495 6 1 C6.33 1.99 6.66 2.98 7 4 C6.34 4 5.68 4 5 4 C5 3.34 5 2.68 5 2 C3.68 2 2.36 2 1 2 C1.495 2.7425 1.99 3.485 2.5 4.25 C4 7 4 7 4 11 C2.02 11 0.04 11 -2 11 C-2.66 9.68 -3.32 8.36 -4 7 C-3.34 7 -2.68 7 -2 7 C-1.67 7.66 -1.34 8.32 -1 9 C-0.01 9.33 0.98 9.66 2 10 C1.2265625 8.9171875 1.2265625 8.9171875 0.4375 7.8125 C-1.21442982 4.5804634 -1.06351675 3.38391693 0 0 Z " fill="#341521" transform="translate(207,36)"/>
<path d="M0 0 C2.82781575 2.82781575 2.98793903 4.65023199 3.125 8.625 C3 12 3 12 2 13 C-1.47429255 13.48254063 -2.77652677 13.14728917 -5.75 11.1875 C-8 9 -8 9 -9 6 C-6.53199953 7.15173355 -4.95216435 8.04783565 -3 10 C-1.68 10.33 -0.36 10.66 1 11 C0.67 7.37 0.34 3.74 0 0 Z " fill="#191406" transform="translate(217,174)"/>
<path d="M0 0 C0 0.99 0 1.98 0 3 C-4.47154605 7.00897232 -10.29620237 6.71031501 -16 7 C-16 6.34 -16 5.68 -16 5 C-14.783125 4.731875 -13.56625 4.46375 -12.3125 4.1875 C-7.87635562 3.09805818 -4.48951171 0 0 0 Z " fill="#6A7578" transform="translate(155,177)"/>
<path d="M0 0 C2.125 0.375 2.125 0.375 4 1 C4.625 3.375 4.625 3.375 5 6 C4.34 6.66 3.68 7.32 3 8 C0.875 7.625 0.875 7.625 -1 7 C-1.625 4.625 -1.625 4.625 -2 2 C-1.34 1.34 -0.68 0.68 0 0 Z " fill="#322607" transform="translate(139,139)"/>
<path d="M0 0 C0.66 1.98 1.32 3.96 2 6 C1.34 6 0.68 6 0 6 C-0.33 4.68 -0.66 3.36 -1 2 C-4.24849977 3.72226496 -4.24849977 3.72226496 -5 7 C-5.33 6.01 -5.66 5.02 -6 4 C-6.99 4.495 -6.99 4.495 -8 5 C-8 6.32 -8 7.64 -8 9 C-8.99 8.67 -9.98 8.34 -11 8 C-10.875 5.6875 -10.875 5.6875 -10 3 C-6.33634907 0.63898051 -4.40218532 0 0 0 Z " fill="#381E27" transform="translate(282,106)"/>
<path d="M0 0 C0.66 0 1.32 0 2 0 C2.33 3.96 2.66 7.92 3 12 C2.34 12 1.68 12 1 12 C1 9.36 1 6.72 1 4 C0.34 4 -0.32 4 -1 4 C-1.28875 4.598125 -1.5775 5.19625 -1.875 5.8125 C-3 8 -3 8 -5 11 C-5.66 11 -6.32 11 -7 11 C-5.51131293 6.39860359 -3.25370145 3.49772906 0 0 Z " fill="#311420" transform="translate(131,279)"/>
<path d="M0 0 C2.4375 0.0625 2.4375 0.0625 5 1 C7.20970874 3.89548041 8 5.33157745 8 9 C7.34 9 6.68 9 6 9 C5.566875 8.030625 5.13375 7.06125 4.6875 6.0625 C3.2985139 2.72268235 3.2985139 2.72268235 0 2 C0.33 4.97 0.66 7.94 1 11 C0.34 11 -0.32 11 -1 11 C-1.22174933 9.54364629 -1.42698698 8.08477044 -1.625 6.625 C-1.74101562 5.81289063 -1.85703125 5.00078125 -1.9765625 4.1640625 C-1.98429688 3.44992187 -1.99203125 2.73578125 -2 2 C-1.34 1.34 -0.68 0.68 0 0 Z " fill="#3B202B" transform="translate(202,274)"/>
<path d="M0 0 C0.33 0.99 0.66 1.98 1 3 C-7.41174298 7.50082871 -14.43503816 9.34641713 -24 9 C-24 8.67 -24 8.34 -24 8 C-22.53240234 7.76216797 -22.53240234 7.76216797 -21.03515625 7.51953125 C-13.21065296 6.15905185 -6.67094452 4.57384543 0 0 Z " fill="#2D2205" transform="translate(193,205)"/>
<path d="M0 0 C1.32 0 2.64 0 4 0 C4.33 2.31 4.66 4.62 5 7 C3.35 7.33 1.7 7.66 0 8 C-0.38063221 5.6739143 -0.71269945 3.33944736 -1 1 C-0.67 0.67 -0.34 0.34 0 0 Z " fill="#EEC4D6" transform="translate(216,269)"/>
<path d="M0 0 C7.47345921 -0.51266107 12.96753613 -0.85514903 19.078125 3.75390625 C22.39566629 5.90491371 26.14268711 6.40175934 30 7 C30 7.33 30 7.66 30 8 C23.5959301 8.45743356 19.42348408 7.48834422 14 4 C13.34 3.34 12.68 2.68 12 2 C9.10776497 1.53603307 9.10776497 1.53603307 5.875 1.375 C4.23144531 1.26285156 4.23144531 1.26285156 2.5546875 1.1484375 C1.71164063 1.09945312 0.86859375 1.05046875 0 1 C0 0.67 0 0.34 0 0 Z " fill="#120B02" transform="translate(154,214)"/>
<path d="M0 0 C3.80916234 5.07888313 4.11573285 6.75042634 4 13 C0.32579134 12.69381595 -0.78135513 12.24228216 -3.3125 9.4375 C-3.869375 8.633125 -4.42625 7.82875 -5 7 C-4.34 6.67 -3.68 6.34 -3 6 C-3 6.66 -3 7.32 -3 8 C-1.68 8.66 -0.36 9.32 1 10 C0.67 6.7 0.34 3.4 0 0 Z " fill="#E1D974" transform="translate(214,172)"/>
<path d="M0 0 C2.95164119 2.74807973 5.2946915 5.32012377 7 9 C6.6875 11.8125 6.6875 11.8125 6 14 C4.10786631 11.61426621 2.97608217 9.92824652 2 7 C0.68 7.33 -0.64 7.66 -2 8 C-1.33333333 5.33333333 -0.66666667 2.66666667 0 0 Z " fill="#EEE26B" transform="translate(191,119)"/>
<path d="M0 0 C0.66 0.33 1.32 0.66 2 1 C2.6328125 3.28515625 2.6328125 3.28515625 3.125 6.0625 C3.29257813 6.98160156 3.46015625 7.90070313 3.6328125 8.84765625 C3.75398437 9.55792969 3.87515625 10.26820313 4 11 C1 13 1 13 -1.1875 12.625 C-1.785625 12.41875 -2.38375 12.2125 -3 12 C-1.68 11.67 -0.36 11.34 1 11 C1 9.68 1 8.36 1 7 C-0.32 6.67 -1.64 6.34 -3 6 C-2.01 5.67 -1.02 5.34 0 5 C0 3.35 0 1.7 0 0 Z " fill="#3E222E" transform="translate(183,279)"/>
<path d="M0 0 C0.66 0.33 1.32 0.66 2 1 C1.67 2.65 1.34 4.3 1 6 C-3.455 7.485 -3.455 7.485 -8 9 C-11 5.25 -11 5.25 -11 3 C-10.34 3 -9.68 3 -9 3 C-8.67 4.32 -8.34 5.64 -8 7 C-7.01 6.67 -6.02 6.34 -5 6 C-4.26676204 3.98491642 -4.26676204 3.98491642 -4 2 C-2.68 2.66 -1.36 3.32 0 4 C0 2.68 0 1.36 0 0 Z " fill="#351924" transform="translate(45,205)"/>
<path d="M0 0 C0.33 0 0.66 0 1 0 C1.33 2.64 1.66 5.28 2 8 C-2.455 8.495 -2.455 8.495 -7 9 C-6 5 -6 5 -4 3 C-3.01 3 -2.02 3 -1 3 C-0.67 3.99 -0.34 4.98 0 6 C0 4.02 0 2.04 0 0 Z " fill="#DC8CAA" transform="translate(124,175)"/>
<path d="M0 0 C0.66 0 1.32 0 2 0 C2 1.65 2 3.3 2 5 C4.64 5.33 7.28 5.66 10 6 C10.33 6.99 10.66 7.98 11 9 C7.7 8.34 4.4 7.68 1 7 C1 7.66 1 8.32 1 9 C0.34 9 -0.32 9 -1 9 C-0.67 6.03 -0.34 3.06 0 0 Z " fill="#371A27" transform="translate(34,113)"/>
<path d="M0 0 C0.66 0 1.32 0 2 0 C2.33 2.31 2.66 4.62 3 7 C4.98 7.66 6.96 8.32 9 9 C8.01 9.495 8.01 9.495 7 10 C7 10.66 7 11.32 7 12 C5.68 12 4.36 12 3 12 C2.34 10.35 1.68 8.7 1 7 C0.34 7 -0.32 7 -1 7 C-1.04254356 5.00045254 -1.04080783 2.99958364 -1 1 C-0.67 0.67 -0.34 0.34 0 0 Z " fill="#DBB1C3" transform="translate(162,284)"/>
<path d="M0 0 C0.66 0 1.32 0 2 0 C2.598125 0.61875 3.19625 1.2375 3.8125 1.875 C6.12505706 4.121484 7.97199019 4.9906634 11 6 C11 6.66 11 7.32 11 8 C8.69 7.34 6.38 6.68 4 6 C4 7.98 4 9.96 4 12 C3.34 12 2.68 12 2 12 C1.34 8.04 0.68 4.08 0 0 Z " fill="#3B1D29" transform="translate(227,261)"/>
<path d="M0 0 C4.95 0.99 4.95 0.99 10 2 C10 1.34 10 0.68 10 0 C10.66 0 11.32 0 12 0 C11.67 2.97 11.34 5.94 11 9 C10.34 9 9.68 9 9 9 C9 7.35 9 5.7 9 4 C6.36 3.67 3.72 3.34 1 3 C0.67 2.01 0.34 1.02 0 0 Z " fill="#3A202B" transform="translate(273,198)"/>
<path d="M0 0 C2.5 0.125 2.5 0.125 5 1 C6.3125 3.0625 6.3125 3.0625 7 5 C5.02 5.99 5.02 5.99 3 7 C2.67 6.01 2.34 5.02 2 4 C1.34 3.67 0.68 3.34 0 3 C0.33 3.99 0.66 4.98 1 6 C-0.32 6 -1.64 6 -3 6 C-2.42655063 3.13275314 -2.1385485 2.1385485 0 0 Z " fill="#E0BCCD" transform="translate(254,73)"/>
<path d="M0 0 C0.66 0 1.32 0 2 0 C2.66 3.96 3.32 7.92 4 12 C3.34 12 2.68 12 2 12 C1.401875 11.38125 0.80375 10.7625 0.1875 10.125 C-2.12505706 7.878516 -3.97199019 7.0093366 -7 6 C-7 5.34 -7 4.68 -7 4 C-4.69 4.66 -2.38 5.32 0 6 C0 4.02 0 2.04 0 0 Z " fill="#391C28" transform="translate(87,47)"/>
<path d="M0 0 C0.66 0 1.32 0 2 0 C3.25 7.625 3.25 7.625 1 11 C-1.3125 10.875 -1.3125 10.875 -4 10 C-5.875 7.0625 -5.875 7.0625 -7 4 C-6.67 3.34 -6.34 2.68 -6 2 C-5.401875 2.969375 -4.80375 3.93875 -4.1875 4.9375 C-2.28872491 8.23052042 -2.28872491 8.23052042 1 9 C0.67 6.03 0.34 3.06 0 0 Z " fill="#391C28" transform="translate(115,35)"/>
<path d="M0 0 C0 0.66 0 1.32 0 2 C-0.99 2.33 -1.98 2.66 -3 3 C-3.73323796 5.01508358 -3.73323796 5.01508358 -4 7 C-2.68 7.33 -1.36 7.66 0 8 C-0.99 8.495 -0.99 8.495 -2 9 C-2.65555119 11.52733235 -2.65555119 11.52733235 -3 14 C-3.66 13.67 -4.32 13.34 -5 13 C-5.6328125 10.71484375 -5.6328125 10.71484375 -6.125 7.9375 C-6.29257813 7.01839844 -6.46015625 6.09929688 -6.6328125 5.15234375 C-6.75398437 4.44207031 -6.87515625 3.73179688 -7 3 C-2.25 0 -2.25 0 0 0 Z " fill="#3F202C" transform="translate(138,27)"/>
<path d="M0 0 C0.66 0 1.32 0 2 0 C0.80100302 3.0831351 -0.47700477 6.06279492 -2 9 C-1.34 9.33 -0.68 9.66 0 10 C0 10.66 0 11.32 0 12 C-3.77545388 10.90931332 -6.47043472 10.0916909 -9 7 C-8.2575 6.95875 -7.515 6.9175 -6.75 6.875 C-2.9176007 5.65560022 -2.05734223 3.33431327 0 0 Z " fill="#3B202B" transform="translate(93,263)"/>
<path d="M0 0 C1.98 0 3.96 0 6 0 C6 0.99 6 1.98 6 3 C-0.30159801 6.4508751 -4.93574297 7.51376936 -12 6 C-12 5.67 -12 5.34 -12 5 C-11.15695313 4.86722656 -10.31390625 4.73445312 -9.4453125 4.59765625 C-8.34960938 4.42105469 -7.25390625 4.24445313 -6.125 4.0625 C-4.48917969 3.80146484 -4.48917969 3.80146484 -2.8203125 3.53515625 C-0.06178454 3.14448841 -0.06178454 3.14448841 2 2 C1.34 1.34 0.68 0.68 0 0 Z " fill="#221C07" transform="translate(148,214)"/>
<path d="M0 0 C1.32 0.66 2.64 1.32 4 2 C3.67 3.98 3.34 5.96 3 8 C1.02 8 -0.96 8 -3 8 C-3.33 6.35 -3.66 4.7 -4 3 C-2.68 2.67 -1.36 2.34 0 2 C0 1.34 0 0.68 0 0 Z " fill="#E5B6CA" transform="translate(269,208)"/>
<path d="M0 0 C0.66 1.32 1.32 2.64 2 4 C-1.32307692 7.93846154 -1.32307692 7.93846154 -4.75 8.25 C-5.4925 8.1675 -6.235 8.085 -7 8 C-6.67 7.01 -6.34 6.02 -6 5 C-5.34 5 -4.68 5 -4 5 C-4 4.01 -4 3.02 -4 2 C-2.68 1.34 -1.36 0.68 0 0 Z " fill="#F1E86E" transform="translate(190,211)"/>
<path d="M0 0 C2.49361571 1.20381448 4.68143083 2.45428722 7 4 C7 4.66 7 5.32 7 6 C8.65 6.33 10.3 6.66 12 7 C12 7.66 12 8.32 12 9 C12.99 9 13.98 9 15 9 C15 9.66 15 10.32 15 11 C10.87054925 10.45819263 8.49583086 9.20641582 5.25 6.625 C4.47140625 6.01914063 3.6928125 5.41328125 2.890625 4.7890625 C1 3 1 3 0 0 Z " fill="#E2D973" transform="translate(123,200)"/>
<path d="M0 0 C1.98 0 3.96 0 6 0 C10.07877462 7.0547046 10.07877462 7.0547046 9.75 11 C9.5025 11.66 9.255 12.32 9 13 C8.01 13.33 7.02 13.66 6 14 C6.02320313 13.38511719 6.04640625 12.77023438 6.0703125 12.13671875 C6.08835938 11.32847656 6.10640625 10.52023438 6.125 9.6875 C6.14820313 8.88699219 6.17140625 8.08648437 6.1953125 7.26171875 C6.15817322 4.71611424 6.15817322 4.71611424 4 2 C1.94996045 0.80767387 1.94996045 0.80767387 0 0 Z " fill="#F3E973" transform="translate(154,164)"/>
<path d="M0 0 C0.66 1.32 1.32 2.64 2 4 C-2.28947487 7.79453546 -6.25023681 8.05479056 -11.8671875 7.87890625 C-13.20367374 7.7806352 -14.53964244 7.67507375 -15.875 7.5625 C-16.56335938 7.51029297 -17.25171875 7.45808594 -17.9609375 7.40429688 C-19.64112758 7.27594902 -21.32064749 7.13887775 -23 7 C-23 6.67 -23 6.34 -23 6 C-21.74703125 5.95101562 -20.4940625 5.90203125 -19.203125 5.8515625 C-17.55206179 5.77651417 -15.90102119 5.70096723 -14.25 5.625 C-13.425 5.5940625 -12.6 5.563125 -11.75 5.53125 C-10.95078125 5.49257812 -10.1515625 5.45390625 -9.328125 5.4140625 C-8.22839355 5.36693115 -8.22839355 5.36693115 -7.10644531 5.31884766 C-4.68519718 4.95234904 -3.05485874 4.33201878 -1 3 C-0.67 2.01 -0.34 1.02 0 0 Z " fill="#644B26" transform="translate(178,147)"/>
<path d="M0 0 C0.66 0.33 1.32 0.66 2 1 C2 3.97 2 6.94 2 10 C0.68 9.67 -0.64 9.34 -2 9 C-3.25 6.4375 -3.25 6.4375 -4 4 C-2.68 2.68 -1.36 1.36 0 0 Z " fill="#E0B2C6" transform="translate(114,34)"/>
<path d="M0 0 C0.95390625 -0.00128906 1.9078125 -0.00257813 2.890625 -0.00390625 C3.87546875 -0.00003906 4.8603125 0.00382813 5.875 0.0078125 C6.85984375 0.00394531 7.8446875 0.00007812 8.859375 -0.00390625 C10.29023438 -0.00197266 10.29023438 -0.00197266 11.75 0 C12.61367187 0.00112793 13.47734375 0.00225586 14.3671875 0.00341797 C16.9547817 0.13692896 19.3504608 0.5633208 21.875 1.1328125 C21.875 1.4628125 21.875 1.7928125 21.875 2.1328125 C19.8835944 2.51414549 17.88220923 2.84606832 15.875 3.1328125 C15.545 2.8028125 15.215 2.4728125 14.875 2.1328125 C13.02130389 2.04543605 11.16432459 2.02583097 9.30859375 2.03515625 C8.18388672 2.03837891 7.05917969 2.04160156 5.90039062 2.04492188 C4.12438477 2.05749023 4.12438477 2.05749023 2.3125 2.0703125 C1.12462891 2.07482422 -0.06324219 2.07933594 -1.28710938 2.08398438 C-4.23312226 2.09581575 -7.17903681 2.11229963 -10.125 2.1328125 C-10.125 1.8028125 -10.125 1.4728125 -10.125 1.1328125 C-6.69164431 0.35830776 -3.51718615 0.00459334 0 0 Z " fill="#655B15" transform="translate(152.125,212.8671875)"/>
<path d="M0 0 C4.03174806 0.27489191 5.56894631 0.53491576 8.375 3.5625 C8.91125 4.366875 9.4475 5.17125 10 6 C8.35 5.67 6.7 5.34 5 5 C4.67 7.97 4.34 10.94 4 14 C3.67 14 3.34 14 3 14 C3 10.04 3 6.08 3 2 C2.01 2 1.02 2 0 2 C0 1.34 0 0.68 0 0 Z " fill="#4E451B" transform="translate(200,174)"/>
<path d="M0 0 C3.3 0 6.6 0 10 0 C7.98888806 4.02222388 6.59551067 5.48314253 3 8 C2.34 8 1.68 8 1 8 C2.75 4.125 2.75 4.125 5 3 C2.03 2.505 2.03 2.505 -1 2 C-0.67 1.34 -0.34 0.68 0 0 Z " fill="#2A111B" transform="translate(267,97)"/>
<path d="M0 0 C0.33 0 0.66 0 1 0 C1.375 2.6875 1.375 2.6875 1 6 C-1.93560418 9.00232246 -4.66905272 11.72931579 -9 12 C-11.00946222 11.72949547 -13.01354224 11.40632091 -15 11 C-15 10.67 -15 10.34 -15 10 C-14.32453125 9.91363281 -13.6490625 9.82726562 -12.953125 9.73828125 C-7.1387569 8.88017279 -7.1387569 8.88017279 -2.4375 5.5625 C-0.89699698 3.00490491 -0.89699698 3.00490491 0 0 Z " fill="#28220A" transform="translate(193,210)"/>
<path d="M0 0 C1.65 0 3.3 0 5 0 C4.01 0.33 3.02 0.66 2 1 C3.03406673 2.25949049 3.03406673 2.25949049 5.28515625 2.09765625 C6.20167969 2.08605469 7.11820313 2.07445313 8.0625 2.0625 C8.98160156 2.05347656 9.90070312 2.04445313 10.84765625 2.03515625 C11.55792969 2.02355469 12.26820312 2.01195313 13 2 C13 2.33 13 2.66 13 3 C10.69 3.33 8.38 3.66 6 4 C6.66 5.32 7.32 6.64 8 8 C5.04987143 6.63029745 2.4347778 5.17390875 0 3 C0 2.01 0 1.02 0 0 Z " fill="#442B36" transform="translate(53,80)"/>
<path d="M0 0 C3.77545388 1.09068668 6.47043472 1.9083091 9 5 C7.35 4.67 5.7 4.34 4 4 C3.5978125 5.1446875 3.5978125 5.1446875 3.1875 6.3125 C2.05575888 8.87380884 1.08776599 10.19692938 -1 12 C-0.44271087 8.65626525 0.35173889 5.96687001 2 3 C1.34 2.67 0.68 2.34 0 2 C0 1.34 0 0.68 0 0 Z " fill="#301621" transform="translate(225,45)"/>
<path d="M0 0 C0.4125 0.61875 0.825 1.2375 1.25 1.875 C3.05573879 4.06768281 4.4090534 4.92788417 7 6 C5.865625 6.28875 4.73125 6.5775 3.5625 6.875 C2.386875 7.24625 1.21125 7.6175 0 8 C-0.33 8.66 -0.66 9.32 -1 10 C-1.66 9.67 -2.32 9.34 -3 9 C-2.44271087 5.65626525 -1.64826111 2.96687001 0 0 Z " fill="#E6B7CC" transform="translate(212,274)"/>
<path d="M0 0 C3.81684226 1.55500981 6.19195732 4.03595495 9 7 C8.67 7.33 8.34 7.66 8 8 C6.47480724 7.91062197 4.95318071 7.75462854 3.4375 7.5625 C2.19806641 7.40974609 2.19806641 7.40974609 0.93359375 7.25390625 C0.29550781 7.17011719 -0.34257812 7.08632812 -1 7 C-1 6.67 -1 6.34 -1 6 C0.65 5.67 2.3 5.34 4 5 C3.01 4.319375 3.01 4.319375 2 3.625 C1.34 3.08875 0.68 2.5525 0 2 C0 1.34 0 0.68 0 0 Z " fill="#2A161E" transform="translate(257,232)"/>
<path d="M0 0 C0.99 0.99 1.98 1.98 3 3 C-0.42388092 6.82669043 -3.00724943 8.72278474 -8 10 C-7.59007813 9.52949219 -7.18015625 9.05898437 -6.7578125 8.57421875 C-6.21898438 7.95160156 -5.68015625 7.32898438 -5.125 6.6875 C-4.59132813 6.07261719 -4.05765625 5.45773438 -3.5078125 4.82421875 C-1.8359553 2.86501788 -1.8359553 2.86501788 0 0 Z " fill="#E8E06E" transform="translate(114,148)"/>
<path d="M0 0 C1.32 0.33 2.64 0.66 4 1 C3.75 3.375 3.75 3.375 3 6 C1.1875 7.375 1.1875 7.375 -1 8 C-3.25 7.625 -3.25 7.625 -5 7 C-4.175 6.21625 -3.35 5.4325 -2.5 4.625 C0.22988506 2.36278736 0.22988506 2.36278736 0 0 Z " fill="#DEBB80" transform="translate(174,145)"/>
<path d="M0 0 C0.66 1.32 1.32 2.64 2 4 C3.98 4 5.96 4 8 4 C7.67 4.99 7.34 5.98 7 7 C6.34 7 5.68 7 5 7 C4.34 8.32 3.68 9.64 3 11 C2.731875 10.38125 2.46375 9.7625 2.1875 9.125 C1.04443152 6.7004767 1.04443152 6.7004767 -2 5 C-1.34 3.35 -0.68 1.7 0 0 Z " fill="#E3D76B" transform="translate(178,139)"/>
<path d="M0 0 C2.97 0.495 2.97 0.495 6 1 C5.01 3.31 4.02 5.62 3 8 C2.67 7.34 2.34 6.68 2 6 C1.01 5.67 0.02 5.34 -1 5 C-0.67 3.35 -0.34 1.7 0 0 Z " fill="#E6B8CB" transform="translate(275,212)"/>
<path d="M0 0 C5.75 1.75 5.75 1.75 8 4 C5.36 3.67 2.72 3.34 0 3 C0 3.66 0 4.32 0 5 C-1.65 5.33 -3.3 5.66 -5 6 C-4.67 4.68 -4.34 3.36 -4 2 C-2.68 2 -1.36 2 0 2 C0 1.34 0 0.68 0 0 Z " fill="#E8DD6A" transform="translate(173,106)"/>
<path d="M0 0 C0.66 0.33 1.32 0.66 2 1 C1.67 2.32 1.34 3.64 1 5 C-0.32 4.67 -1.64 4.34 -3 4 C-3.33 5.32 -3.66 6.64 -4 8 C-4.99 8 -5.98 8 -7 8 C-7 7.01 -7 6.02 -7 5 C-6.34 5 -5.68 5 -5 5 C-5 4.01 -5 3.02 -5 2 C-2.625 0.9375 -2.625 0.9375 0 0 Z " fill="#D1AABC" transform="translate(44,204)"/>
<path d="M0 0 C0.33 0 0.66 0 1 0 C1.66 2.31 2.32 4.62 3 7 C-0.17754575 8.58877287 -3.49382922 8 -7 8 C-7 6.68 -7 5.36 -7 4 C-5.33388095 3.957279 -3.66617115 3.95936168 -2 4 C-1.67 4.33 -1.34 4.66 -1 5 C-0.67 3.35 -0.34 1.7 0 0 Z " fill="#E9B8CD" transform="translate(143,31)"/>
<path d="M0 0 C-1.04874998 2.62187494 -1.64931313 3.79371361 -4.125 5.25 C-4.74375 5.4975 -5.3625 5.745 -6 6 C-3.03 6.495 -3.03 6.495 0 7 C-0.33 7.66 -0.66 8.32 -1 9 C-3.64 8.67 -6.28 8.34 -9 8 C-7.47364599 4.11473526 -4.49771687 0 0 0 Z " fill="#3C202C" transform="translate(50,215)"/>
<path d="M0 0 C0.66 0 1.32 0 2 0 C1.67 4.29 1.34 8.58 1 13 C0.34 13 -0.32 13 -1 13 C-1.22245393 11.39773045 -1.42746669 9.79303233 -1.625 8.1875 C-1.74101563 7.29417969 -1.85703125 6.40085938 -1.9765625 5.48046875 C-2 3 -2 3 0 0 Z " fill="#FAEB64" transform="translate(112,176)"/>
<path d="M0 0 C2.75 0.125 2.75 0.125 6 1 C8.375 4.0625 8.375 4.0625 10 7 C9.67 7.66 9.34 8.32 9 9 C8.443125 8.175 7.88625 7.35 7.3125 6.5 C5.25072867 3.7254586 5.25072867 3.7254586 2.25 3.6875 C1.5075 3.790625 0.765 3.89375 0 4 C0 2.68 0 1.36 0 0 Z " fill="#F0E671" transform="translate(204,163)"/>
<path d="M0 0 C1.875 0.25 1.875 0.25 4 1 C5.25 3.0625 5.25 3.0625 6 5 C5.01 5.66 4.02 6.32 3 7 C1.68 6.34 0.36 5.68 -1 5 C-0.34 5 0.32 5 1 5 C0.67 3.35 0.34 1.7 0 0 Z " fill="#EFBCD1" transform="translate(53,84)"/>
<path d="M0 0 C1.32 0.33 2.64 0.66 4 1 C2.99328314 4.02015057 2.451644 5.09316578 0 7 C-1.32 7 -2.64 7 -4 7 C-3.67 5.35 -3.34 3.7 -3 2 C-2.01 2 -1.02 2 0 2 C0 1.34 0 0.68 0 0 Z " fill="#E8B9CD" transform="translate(138,27)"/>
<path d="M0 0 C1.32 0.66 2.64 1.32 4 2 C3.01 2.33 2.02 2.66 1 3 C1 4.98 1 6.96 1 9 C0.01 9 -0.98 9 -2 9 C-2.6875 6.1875 -2.6875 6.1875 -3 3 C-1.5625 1.125 -1.5625 1.125 0 0 Z " fill="#533340" transform="translate(215,267)"/>
<path d="M0 0 C0.33 0.99 0.66 1.98 1 3 C3.01508358 3.73323796 3.01508358 3.73323796 5 4 C3.35830472 6.02054804 1.69088222 8.02043058 0 10 C-0.33 10 -0.66 10 -1 10 C-0.67 6.7 -0.34 3.4 0 0 Z " fill="#C6A2B3" transform="translate(246,59)"/>
<path d="M0 0 C0.66 0.33 1.32 0.66 2 1 C0.8125 3.4375 0.8125 3.4375 -1 6 C-3.6875 6.8125 -3.6875 6.8125 -6 7 C-5.67 6.01 -5.34 5.02 -5 4 C-5.66 3.67 -6.32 3.34 -7 3 C-4.69631264 1.93347808 -2.35981813 0.93578995 0 0 Z " fill="#F0E16A" transform="translate(179,151)"/>
<path d="M0 0 C4.55737263 0.43820891 7.57653445 0.85041169 11 4 C6.48382401 4.07654536 2.40914783 4.10228696 -2 3 C-1.34 2.01 -0.68 1.02 0 0 Z " fill="#DCD355" transform="translate(158,138)"/>
<path d="M0 0 C2.53910197 0.38520564 3.72751123 0.70097943 5.484375 2.62890625 C5.90203125 3.26699219 6.3196875 3.90507813 6.75 4.5625 C7.17796875 5.20316406 7.6059375 5.84382813 8.046875 6.50390625 C8.36140625 6.99761719 8.6759375 7.49132812 9 8 C8.01 9.485 8.01 9.485 7 11 C6.66226563 10.45730469 6.32453125 9.91460937 5.9765625 9.35546875 C5.53054687 8.64003906 5.08453125 7.92460938 4.625 7.1875 C4.18414062 6.47980469 3.74328125 5.77210937 3.2890625 5.04296875 C2.21811524 3.34567961 1.11323761 1.66985642 0 0 Z " fill="#2C240D" transform="translate(189,116)"/>
<path d="M0 0 C1.875 0.1875 1.875 0.1875 4 1 C5.25 3.5625 5.25 3.5625 6 6 C5.01 6.33 4.02 6.66 3 7 C2.01 6.34 1.02 5.68 0 5 C-0.1875 2.375 -0.1875 2.375 0 0 Z " fill="#E3B7CA" transform="translate(202,276)"/>
<path d="M0 0 C-0.33 3.3 -0.66 6.6 -1 10 C-1.33 8.68 -1.66 7.36 -2 6 C-2.99 6.33 -3.98 6.66 -5 7 C-5 4 -5 4 -3.0625 1.8125 C-1 0 -1 0 0 0 Z " fill="#C19BAD" transform="translate(73,251)"/>
<path d="M0 0 C0.66 0 1.32 0 2 0 C1.46884894 4.51478398 -0.36620292 7.34666857 -3 11 C-4 8 -4 8 -3.22265625 5.95703125 C-2.83980469 5.24933594 -2.45695312 4.54164063 -2.0625 3.8125 C-1.68222656 3.09707031 -1.30195312 2.38164062 -0.91015625 1.64453125 C-0.60980469 1.10183594 -0.30945313 0.55914062 0 0 Z " fill="#3F1F2C" transform="translate(101,268)"/>
<path d="M0 0 C1.32 0 2.64 0 4 0 C2.63016497 3.16115776 2.0109362 3.9927092 -1 6 C-1.66 5.67 -2.32 5.34 -3 5 C-1.125 1.125 -1.125 1.125 0 0 Z " fill="#E8B7CD" transform="translate(67,249)"/>
<path d="M0 0 C0.66 0 1.32 0 2 0 C0.40907948 4.13639336 -2.60474918 7.23213248 -6 10 C-6.66 10 -7.32 10 -8 10 C-8 9.01 -8 8.02 -8 7 C-6.34928604 5.97388051 -4.68029994 4.97691857 -3 4 C-1.98199424 2.68036291 -0.97751635 1.34990354 0 0 Z " fill="#280F19" transform="translate(251,62)"/>
<path d="M0 0 C0.66 0 1.32 0 2 0 C1.34 3.3 0.68 6.6 0 10 C-0.99 10.33 -1.98 10.66 -3 11 C-2.44894091 7.0507432 -1.61064629 3.65079826 0 0 Z " fill="#402531" transform="translate(199,33)"/>
<path d="M0 0 C0.33 0.99 0.66 1.98 1 3 C0 4 0 4 -1.84765625 4.09765625 C-3.8984375 4.06510417 -5.94921875 4.03255208 -8 4 C-4.5 0 -4.5 0 0 0 Z " fill="#D9B5C6" transform="translate(53,217)"/>
<path d="M0 0 C0.33 0.99 0.66 1.98 1 3 C-1.475 4.485 -1.475 4.485 -4 6 C-4.66 4.68 -5.32 3.36 -6 2 C-2.25 0 -2.25 0 0 0 Z " fill="#BE8A9F" transform="translate(46,195)"/>
<path d="M0 0 C1.9375 0.8125 1.9375 0.8125 4 2 C4.33 2.99 4.66 3.98 5 5 C0.05 4.67 -4.9 4.34 -10 4 C-10 3.67 -10 3.34 -10 3 C-6.7 3 -3.4 3 0 3 C0 2.01 0 1.02 0 0 Z " fill="#D6CC67" transform="translate(159,101)"/>
<path d="M0 0 C1.14926266 0.95421808 2.29430541 1.91352045 3.4375 2.875 C4.07558594 3.40867187 4.71367188 3.94234375 5.37109375 4.4921875 C7 6 7 6 8 8 C5.6875 8.25 5.6875 8.25 3 8 C1.1875 6.25 1.1875 6.25 0 4 C0 2.68 0 1.36 0 0 Z " fill="#D2ADBE" transform="translate(55,73)"/>
<path d="M0 0 C1 3 1 3 0.00390625 5.04296875 C-0.47175781 5.75066406 -0.94742188 6.45835938 -1.4375 7.1875 C-1.91058594 7.90292969 -2.38367188 8.61835937 -2.87109375 9.35546875 C-3.24363281 9.89816406 -3.61617187 10.44085938 -4 11 C-5 8 -5 8 -4.00390625 5.95703125 C-3.52824219 5.24933594 -3.05257812 4.54164062 -2.5625 3.8125 C-2.08941406 3.09707031 -1.61632812 2.38164063 -1.12890625 1.64453125 C-0.75636719 1.10183594 -0.38382813 0.55914062 0 0 Z " fill="#3F1D2A" transform="translate(220,41)"/>
<path d="M0 0 C2.97 0.33 5.94 0.66 9 1 C6.75 5.5 6.75 5.5 3 7 C3.99 5.35 4.98 3.7 6 2 C3.69 2 1.38 2 -1 2 C-0.67 1.34 -0.34 0.68 0 0 Z " fill="#250E17" transform="translate(44,220)"/>
<path d="M0 0 C0.66 0 1.32 0 2 0 C2.33 0.66 2.66 1.32 3 2 C3.66 1.67 4.32 1.34 5 1 C5 1.99 5 2.98 5 4 C3.1875 5.0625 3.1875 5.0625 1 6 C0.01 5.67 -0.98 5.34 -2 5 C-1.34 3.35 -0.68 1.7 0 0 Z " fill="#E1B6C8" transform="translate(274,110)"/>
<path d="M0 0 C0.66 0.33 1.32 0.66 2 1 C-1.96 4.465 -1.96 4.465 -6 8 C-6.66 7.01 -7.32 6.02 -8 5 C-7.4225 4.731875 -6.845 4.46375 -6.25 4.1875 C-3.9674132 2.98280141 -2.0262058 1.59201885 0 0 Z " fill="#6D4F5D" transform="translate(91,76)"/>
<path d="M0 0 C0.33 0.99 0.66 1.98 1 3 C-1.3125 6.1875 -1.3125 6.1875 -4 9 C-4.66 9 -5.32 9 -6 9 C-4.68775452 5.06326356 -3.08089673 2.77280706 0 0 Z " fill="#381C28" transform="translate(238,53)"/>
<path d="M0 0 C1.32 0.33 2.64 0.66 4 1 C3.01 2.98 2.02 4.96 1 7 C0.01 7 -0.98 7 -2 7 C-1.42415568 4.61435923 -0.77772405 2.33317216 0 0 Z " fill="#E8BACF" transform="translate(224,47)"/>
<path d="M0 0 C0.33 0.66 0.66 1.32 1 2 C1.99 2.33 2.98 2.66 4 3 C2.625 5.5 2.625 5.5 1 8 C0.34 8 -0.32 8 -1 8 C-1.125 2.25 -1.125 2.25 0 0 Z " fill="#D5B0C1" transform="translate(187,29)"/>
<path d="M0 0 C0 0.33 0 0.66 0 1 C-1.98 1.33 -3.96 1.66 -6 2 C-6.33 3.65 -6.66 5.3 -7 7 C-8.0625 5.1875 -8.0625 5.1875 -9 3 C-8.67 2.01 -8.34 1.02 -8 0 C-5.13822943 -1.43088528 -3.06624227 -0.59991697 0 0 Z " fill="#4C303D" transform="translate(173,282)"/>
<path d="M0 0 C0.33 0.99 0.66 1.98 1 3 C-0.97420135 5.52259061 -1.96745642 5.9929808 -5.1875 6.6875 C-6.5796875 6.8421875 -6.5796875 6.8421875 -8 7 C-5.4837822 4.39391727 -2.94865641 2.10618315 0 0 Z " fill="#ECBED2" transform="translate(224,243)"/>
<path d="M0 0 C0.6875 1.8125 0.6875 1.8125 1 4 C-0.3125 5.75 -0.3125 5.75 -2 7 C-2.66 7 -3.32 7 -4 7 C-4 6.34 -4 5.68 -4 5 C-4.66 4.67 -5.32 4.34 -6 4 C-4.02 2.68 -2.04 1.36 0 0 Z " fill="#F1E470" transform="translate(157,181)"/>
<path d="M0 0 C0.33 0.99 0.66 1.98 1 3 C1.66 3 2.32 3 3 3 C3 4.65 3 6.3 3 8 C2.67 7.34 2.34 6.68 2 6 C0.02 6.99 0.02 6.99 -2 8 C-1.47731534 5.23723823 -0.89130413 2.6739124 0 0 Z " fill="#E7DD5E" transform="translate(144,142)"/>
<path d="M0 0 C0.99 0 1.98 0 3 0 C3 1.65 3 3.3 3 5 C1.35 5 -0.3 5 -2 5 C-1.34 3.35 -0.68 1.7 0 0 Z " fill="#2B271C" transform="translate(182,139)"/>
<path d="M0 0 C0.99 0 1.98 0 3 0 C2.34 1.65 1.68 3.3 1 5 C2.65 5 4.3 5 6 5 C5.01 5.66 4.02 6.32 3 7 C2.01 6.67 1.02 6.34 0 6 C0 5.01 0 4.02 0 3 C-0.66 2.67 -1.32 2.34 -2 2 C-1.34 1.34 -0.68 0.68 0 0 Z " fill="#DED776" transform="translate(165,100)"/>
<path d="M0 0 C0.66 0 1.32 0 2 0 C0.44499019 3.81684226 -2.03595495 6.19195732 -5 9 C-4.42676569 5.13066838 -2.61046448 2.84777943 0 0 Z " fill="#2E1520" transform="translate(84,258)"/>
<path d="M0 0 C0.66 0 1.32 0 2 0 C2.1546875 1.175625 2.1546875 1.175625 2.3125 2.375 C2.77595022 5.33045181 2.77595022 5.33045181 6 7 C4.125 7.625 4.125 7.625 2 8 C0 6 0 6 -0.125 2.875 C-0.08375 1.92625 -0.0425 0.9775 0 0 Z " fill="#131004" transform="translate(108,186)"/>
<path d="M0 0 C0 0.66 0 1.32 0 2 C-0.99 2 -1.98 2 -3 2 C-3.66 3.32 -4.32 4.64 -5 6 C-5.99 5.01 -6.98 4.02 -8 3 C-5.22569089 1.15046059 -3.35957737 0 0 0 Z " fill="#C3D1D4" transform="translate(147,169)"/>
<path d="M0 0 C0.99 0.33 1.98 0.66 3 1 C2.25 2.9375 2.25 2.9375 1 5 C-1.125 5.75 -1.125 5.75 -3 6 C-3 5.01 -3 4.02 -3 3 C-2.34 3 -1.68 3 -1 3 C-0.67 2.01 -0.34 1.02 0 0 Z " fill="#F1E96F" transform="translate(117,167)"/>
<path d="M0 0 C0 3.93169105 -1.39419615 5.16427228 -4 8 C-4.66 8 -5.32 8 -6 8 C-5.65120368 4.74456771 -4.97866739 3.98126893 -2.4375 1.75 C-1.633125 1.1725 -0.82875 0.595 0 0 Z " fill="#42350D" transform="translate(125,163)"/>
<path d="M0 0 C1.65 0 3.3 0 5 0 C5 1.32 5 2.64 5 4 C3.35 4 1.7 4 0 4 C0 2.68 0 1.36 0 0 Z " fill="#261F1B" transform="translate(139,141)"/>
<path d="M0 0 C0.33 0.99 0.66 1.98 1 3 C-3.455 3.495 -3.455 3.495 -8 4 C-7.67 2.68 -7.34 1.36 -7 0 C-3.98968256 -0.93423645 -3.13349732 -1.04449911 0 0 Z " fill="#D7A9BD" transform="translate(53,104)"/>
<path d="M0 0 C0.33 1.32 0.66 2.64 1 4 C0.34 4 -0.32 4 -1 4 C-1.33 5.65 -1.66 7.3 -2 9 C-2.99 9.33 -3.98 9.66 -5 10 C-3.66511872 6.40608886 -2.03977277 3.24509304 0 0 Z " fill="#EEBDD2" transform="translate(34,72)"/>
<path d="M0 0 C2.00720923 0.28674418 4.0085944 0.61866701 6 1 C6.33 1.99 6.66 2.98 7 4 C6.34 4 5.68 4 5 4 C5 3.34 5 2.68 5 2 C3.68 2 2.36 2 1 2 C0.67 2.99 0.34 3.98 0 5 C-0.5625 3.0625 -0.5625 3.0625 -1 1 C-0.67 0.67 -0.34 0.34 0 0 Z " fill="#442432" transform="translate(207,36)"/>
<path d="M0 0 C0 0.99 0 1.98 0 3 C0.3062434 4.33981486 0.63451555 5.67511887 1 7 C-1.475 6.01 -1.475 6.01 -4 5 C-4 4.01 -4 3.02 -4 2 C-2.68 1.34 -1.36 0.68 0 0 Z " fill="#977082" transform="translate(77,281)"/>
<path d="M0 0 C1.32 0.66 2.64 1.32 4 2 C2.63016497 5.16115776 2.0109362 5.9927092 -1 8 C-0.67 5.36 -0.34 2.72 0 0 Z " fill="#DAB4C5" transform="translate(75,249)"/>
<path d="M0 0 C0.66 0.66 1.32 1.32 2 2 C0.02 2 -1.96 2 -4 2 C-4.33 2.66 -4.66 3.32 -5 4 C-5.99 4 -6.98 4 -8 4 C-8 3.01 -8 2.02 -8 1 C-1.9453125 0.0234375 -1.9453125 0.0234375 0 0 Z " fill="#442B36" transform="translate(260,236)"/>
<path d="M0 0 C1.485 0.99 1.485 0.99 3 2 C2.67 3.65 2.34 5.3 2 7 C1.01 6.67 0.02 6.34 -1 6 C-0.67 4.02 -0.34 2.04 0 0 Z " fill="#ED91B2" transform="translate(102,176)"/>
<path d="M0 0 C3.6875 0.875 3.6875 0.875 7 2 C7 2.66 7 3.32 7 4 C3.7 3.34 0.4 2.68 -3 2 C-2.01 1.34 -1.02 0.68 0 0 Z " fill="#4D2E3B" transform="translate(38,118)"/>
<path d="M0 0 C0.33 0.66 0.66 1.32 1 2 C-0.98 2 -2.96 2 -5 2 C-5.33 2.99 -5.66 3.98 -6 5 C-6.99 5.33 -7.98 5.66 -9 6 C-8.34 4.35 -7.68 2.7 -7 1 C-3.535 0.505 -3.535 0.505 0 0 Z " fill="#E2B5C8" transform="translate(51,87)"/>
<path d="M0 0 C-0.33 0.99 -0.66 1.98 -1 3 C-4.375 3.125 -4.375 3.125 -8 3 C-8.66 2.34 -9.32 1.68 -10 1 C-6.61981469 -0.04005702 -3.5219721 -0.08004482 0 0 Z " fill="#E7B8CC" transform="translate(129,11)"/>
<path d="M0 0 C2.97 0 5.94 0 9 0 C6 3 6 3 3.3125 3.1875 C2.1678125 3.0946875 2.1678125 3.0946875 1 3 C0.67 2.01 0.34 1.02 0 0 Z " fill="#391B27" transform="translate(214,276)"/>
<path d="M0 0 C0.33 0.99 0.66 1.98 1 3 C1.66 3.33 2.32 3.66 3 4 C0.69 4.66 -1.62 5.32 -4 6 C-2.84826645 3.53199953 -1.95216435 1.95216435 0 0 Z " fill="#CAA6B7" transform="translate(53,222)"/>
<path d="M0 0 C1.98 0.66 3.96 1.32 6 2 C6 2.33 6 2.66 6 3 C4.35 3 2.7 3 1 3 C0.67 2.01 0.34 1.02 0 0 Z M0 3 C0.33 3.99 0.66 4.98 1 6 C0.01 6 -0.98 6 -2 6 C-2 5.34 -2 4.68 -2 4 C-1.34 3.67 -0.68 3.34 0 3 Z " fill="#E2B5C8" transform="translate(269,217)"/>
<path d="M0 0 C-0.33 1.65 -0.66 3.3 -1 5 C-3.31 4.67 -5.62 4.34 -8 4 C-2.7826087 0 -2.7826087 0 0 0 Z " fill="#E0D877" transform="translate(194,208)"/>
<path d="M0 0 C0.33 0.99 0.66 1.98 1 3 C-1.3125 4.5625 -1.3125 4.5625 -4 6 C-4.99 5.67 -5.98 5.34 -7 5 C-2.25 1.125 -2.25 1.125 0 0 Z " fill="#4A4211" transform="translate(193,205)"/>
<path d="M0 0 C-1.38081223 4.1424367 -3.59825558 5.32203099 -7 8 C-7.66 7.67 -8.32 7.34 -9 7 C-7.88121617 5.82737096 -6.75476949 4.66204862 -5.625 3.5 C-4.68527344 2.52546875 -4.68527344 2.52546875 -3.7265625 1.53125 C-2 0 -2 0 0 0 Z " fill="#E5DE78" transform="translate(139,110)"/>
<path d="M0 0 C1.65 1.65 3.3 3.3 5 5 C2.69 5 0.38 5 -2 5 C-1.34 3.35 -0.68 1.7 0 0 Z " fill="#E6BECF" transform="translate(271,92)"/>
<path d="M0 0 C2.16874252 0.50603992 3.99967627 0.99983813 6 2 C6 2.99 6 3.98 6 5 C4.35 4.67 2.7 4.34 1 4 C0.67 2.68 0.34 1.36 0 0 Z " fill="#836873" transform="translate(46,89)"/>
<path d="M0 0 C0.4125 0.474375 0.825 0.94875 1.25 1.4375 C3.182185 3.16266518 4.48192275 3.56584875 7 4 C7 4.66 7 5.32 7 6 C4.03 5.505 4.03 5.505 1 5 C0.67 3.35 0.34 1.7 0 0 Z " fill="#43232F" transform="translate(57,243)"/>
<path d="M0 0 C2.31 0 4.62 0 7 0 C7 0.66 7 1.32 7 2 C4.36 2.33 1.72 2.66 -1 3 C-0.67 2.01 -0.34 1.02 0 0 Z " fill="#41232F" transform="translate(280,119)"/>
<path d="M0 0 C2.4375 0.375 2.4375 0.375 5 1 C6.35439668 3.70879335 6.06501451 6.00933268 6 9 C5.7525 8.443125 5.505 7.88625 5.25 7.3125 C3.78393985 4.60028873 1.97010529 2.36412635 0 0 Z " fill="#230B14" transform="translate(99,41)"/>
<path d="" fill="#FFFFFF" transform="translate(0,0)"/>
<path d="" fill="#FFFFFF" transform="translate(0,0)"/>
<path d="" fill="#FFFFFF" transform="translate(0,0)"/>
<path d="" fill="#FFFFFF" transform="translate(0,0)"/>
<path d="" fill="#FFFFFF" transform="translate(0,0)"/>
<path d="" fill="#FFFFFF" transform="translate(0,0)"/>
<path d="" fill="#FFFFFF" transform="translate(0,0)"/>
<path d="" fill="#FFFFFF" transform="translate(0,0)"/>
<path d="" fill="#FFFFFF" transform="translate(0,0)"/>
<path d="" fill="#FFFFFF" transform="translate(0,0)"/>
<path d="" fill="#FFFFFF" transform="translate(0,0)"/>
<path d="" fill="#FFFFFF" transform="translate(0,0)"/>
<path d="" fill="#FFFFFF" transform="translate(0,0)"/>
<path d="" fill="#FFFFFF" transform="translate(0,0)"/>
<path d="" fill="#FFFFFF" transform="translate(0,0)"/>
<path d="" fill="#FFFFFF" transform="translate(0,0)"/>
<path d="" fill="#FFFFFF" transform="translate(0,0)"/>
<path d="" fill="#FFFFFF" transform="translate(0,0)"/>
<path d="" fill="#FFFFFF" transform="translate(0,0)"/>
<path d="" fill="#FFFFFF" transform="translate(0,0)"/>
<path d="" fill="#FFFFFF" transform="translate(0,0)"/>
<path d="" fill="#FFFFFF" transform="translate(0,0)"/>
<path d="" fill="#FFFFFF" transform="translate(0,0)"/>
<path d="" fill="#FFFFFF" transform="translate(0,0)"/>
<path d="" fill="#FFFFFF" transform="translate(0,0)"/>
<path d="" fill="#FFFFFF" transform="translate(0,0)"/>
<path d="" fill="#FFFFFF" transform="translate(0,0)"/>
<path d="" fill="#FFFFFF" transform="translate(0,0)"/>
<path d="" fill="#FFFFFF" transform="translate(0,0)"/>
<path d="" fill="#FFFFFF" transform="translate(0,0)"/>
<path d="" fill="#FFFFFF" transform="translate(0,0)"/>
<path d="" fill="#FFFFFF" transform="translate(0,0)"/>
<path d="" fill="#FFFFFF" transform="translate(0,0)"/>
<path d="" fill="#FFFFFF" transform="translate(0,0)"/>
<path d="" fill="#FFFFFF" transform="translate(0,0)"/>
<path d="" fill="#FFFFFF" transform="translate(0,0)"/>
<path d="" fill="#FFFFFF" transform="translate(0,0)"/>
<path d="" fill="#FFFFFF" transform="translate(0,0)"/>
<path d="" fill="#FFFFFF" transform="translate(0,0)"/>
<path d="" fill="#FFFFFF" transform="translate(0,0)"/>
<path d="" fill="#FFFFFF" transform="translate(0,0)"/>
<path d="" fill="#FFFFFF" transform="translate(0,0)"/>
<path d="" fill="#FFFFFF" transform="translate(0,0)"/>
</svg>
